<?xml version="1.0" standalone="no"?>
<!DOCTYPE svg PUBLIC "-//W3C//DTD SVG 20010904//EN"
 "http://www.w3.org/TR/2001/REC-SVG-20010904/DTD/svg10.dtd">
<svg version="1.0" xmlns="http://www.w3.org/2000/svg"
 width="452.000000pt" height="436.000000pt" viewBox="0 0 1152.000000 896.000000"
 preserveAspectRatio="xMidYMid meet">

<g transform="translate(0.000000,896.000000) scale(0.100000,-0.100000)"
   fill="#d0d9e2" stroke="none">
<path d="M0 8545 l0 -415 1070 0 1070 0 0 415 0 415 -1070 0 -1070 0 0 -415z
m369 181 c107 -55 144 -112 122 -194 -15 -54 -56 -101 -121 -136 l-51 -28 -54
27 c-96 46 -147 134 -126 213 10 34 34 64 83 101 14 10 79 38 96 41 1 0 24
-11 51 -24z m299 -68 c-7 -19 -38 -22 -38 -4 0 10 9 16 21 16 12 0 19 -5 17
-12z m687 -76 c11 -135 4 -181 -27 -182 -5 0 -8 61 -8 135 0 109 3 135 14 135
10 0 16 -23 21 -88z m195 58 c0 -28 2 -29 32 -23 42 8 58 -15 58 -84 0 -46 -3
-53 -20 -53 -17 0 -20 7 -20 51 0 47 -2 50 -22 47 -20 -3 -23 -10 -26 -50 -2
-34 -7 -48 -18 -48 -17 0 -17 2 -18 107 -1 73 1 83 17 83 12 0 17 -8 17 -30z
m310 5 c0 -7 8 -19 18 -24 16 -10 16 -12 -1 -25 -15 -12 -18 -25 -15 -63 2
-38 0 -48 -12 -48 -11 0 -16 14 -18 50 -2 27 -8 53 -14 56 -18 11 1 69 23 69
10 0 19 -7 19 -15z m-974 -55 c15 -33 6 -110 -12 -110 -10 0 -14 14 -14 49 0
35 -4 51 -16 55 -26 10 -34 -3 -34 -55 0 -37 -4 -49 -15 -49 -11 0 -15 11 -15
39 0 52 -8 71 -31 71 -16 0 -19 -8 -19 -55 0 -48 -2 -55 -20 -55 -18 0 -20 7
-20 63 0 35 2 66 5 69 3 2 44 4 92 4 84 -1 88 -2 99 -26z m162 -42 c3 -75 11
-68 -73 -69 -40 -1 -69 35 -61 75 10 50 34 67 85 64 l46 -3 3 -67z m85 60 c-2
-5 -3 -35 -3 -69 0 -55 -2 -60 -21 -57 -18 3 -21 11 -24 63 -2 32 -1 63 2 68
6 10 49 5 46 -5z m135 3 c8 -5 16 -35 19 -70 5 -57 4 -61 -15 -61 -18 0 -21 7
-24 53 -3 44 -6 52 -23 52 -17 0 -21 -8 -25 -50 -4 -37 -9 -51 -22 -53 -16 -3
-18 5 -18 65 l0 69 48 2 c26 1 53 -2 60 -7z m199 1 c7 -5 16 -35 19 -69 l7
-60 -44 -6 c-43 -6 -79 5 -79 23 0 6 18 10 41 10 48 0 44 20 -4 21 -18 0 -26
3 -19 6 10 4 10 9 -3 23 -28 30 -11 60 33 60 20 0 43 -4 49 -8z m313 -21 c16
-40 7 -51 -41 -51 -33 0 -40 -3 -37 -17 3 -14 12 -17 42 -16 51 3 43 -21 -8
-25 -54 -5 -80 21 -73 71 7 51 23 67 67 67 32 0 39 -4 50 -29z m-1120 -46 c0
-51 -3 -65 -15 -65 -12 0 -15 14 -15 65 0 51 3 65 15 65 12 0 15 -14 15 -65z"/>
<path d="M233 8659 c-52 -36 -64 -79 -38 -133 17 -36 77 -96 95 -96 19 0 9 20
-35 70 -25 28 -45 57 -45 64 0 26 39 64 60 59 17 -5 20 0 20 31 0 20 -3 36 -7
36 -5 -1 -27 -14 -50 -31z"/>
<path d="M326 8678 c-3 -7 -7 -26 -11 -42 l-6 -29 45 6 c38 6 47 4 56 -13 18
-34 11 -56 -35 -104 -25 -27 -45 -52 -45 -57 0 -22 31 -5 74 41 36 39 46 56
46 84 0 39 -35 88 -81 111 -34 18 -39 18 -43 3z"/>
<path d="M250 8560 c-9 -16 -8 -20 5 -20 9 0 18 7 22 16 3 9 13 14 24 11 11
-3 22 -1 25 4 3 5 -11 9 -30 9 -25 0 -38 -6 -46 -20z"/>
<path d="M349 8556 c16 -19 44 -21 39 -3 -3 6 -15 14 -28 15 -21 3 -22 2 -11
-12z"/>
<path d="M295 8540 c-8 -13 6 -40 21 -40 19 0 18 36 -1 43 -8 4 -17 2 -20 -3z"/>
<path d="M960 8576 c-20 -26 -8 -61 23 -64 26 -3 27 -1 27 37 0 33 -3 41 -19
41 -10 0 -24 -7 -31 -14z"/>
<path d="M1410 8590 c-18 -11 -13 -16 24 -26 26 -6 27 -5 17 15 -13 23 -19 25
-41 11z"/>
<path d="M1707 8584 c-12 -13 3 -21 28 -17 13 3 22 9 19 14 -6 10 -38 12 -47
3z"/>
<path d="M11005 8583 c-44 -11 -47 -22 -42 -128 3 -55 6 -101 6 -102 1 -1 7 0
15 3 8 3 21 -4 29 -16 17 -25 57 -20 57 7 0 21 -41 63 -62 63 -10 0 -18 7 -18
15 0 10 10 15 30 15 23 0 35 -7 49 -31 11 -18 22 -26 25 -20 4 6 4 17 0 23 -5
7 -9 21 -9 31 -2 23 -25 39 -45 31 -34 -14 -45 -9 -48 21 -3 44 12 63 38 48
30 -19 40 -16 40 12 0 14 -4 25 -9 25 -5 0 -15 2 -23 4 -7 2 -22 1 -33 -1z"/>
<path d="M11130 8559 c0 -14 5 -19 17 -17 26 5 29 38 4 38 -15 0 -21 -6 -21
-21z"/>
<path d="M11142 8489 c-18 -7 -23 -16 -21 -36 1 -16 -1 -35 -4 -43 -3 -8 -11
-34 -17 -57 -6 -24 -19 -47 -30 -53 -28 -15 -80 -12 -86 5 -10 25 -24 17 -24
-15 0 -30 0 -30 57 -30 38 0 62 5 75 17 17 15 19 15 38 -2 10 -9 39 -20 63
-22 37 -4 48 -1 66 18 22 24 28 49 11 49 -6 0 -24 -10 -40 -21 -55 -41 -105
-2 -97 76 2 19 9 41 16 49 7 8 9 21 5 27 -5 9 5 11 39 6 51 -7 60 3 25 27 -25
18 -42 19 -76 5z"/>
<path d="M11187 8402 c-11 -2 -17 -13 -17 -32 0 -26 3 -28 46 -32 41 -3 47 -1
55 20 5 13 9 27 9 32 0 9 -65 17 -93 12z"/>
<path d="M5276 8313 c-6 -35 8 -120 30 -176 3 -10 -26 -17 -124 -31 -71 -9
-186 -30 -255 -45 -140 -30 -137 -31 -137 39 0 27 -8 47 -25 67 -13 15 -25 22
-25 15 0 -9 -7 -11 -19 -7 -22 7 -24 2 -41 -103 -15 -89 -23 -90 -12 -1 4 35
5 78 1 94 -4 17 -7 23 -8 14 -1 -22 -91 -22 -91 1 -1 45 -42 -105 -43 -159
l-2 -64 -80 -33 c-44 -17 -141 -59 -215 -92 l-135 -60 -10 61 c-12 66 -39 127
-56 127 -7 0 -6 -6 2 -17 13 -16 12 -17 -3 -4 -10 7 -18 21 -19 30 0 12 -2 11
-9 -4 -5 -11 -9 -15 -9 -9 -1 7 -15 11 -33 10 -18 -1 -31 -6 -29 -11 2 -6 5
-14 6 -20 2 -5 7 -28 13 -50 6 -22 13 -65 16 -95 l6 -55 -14 60 c-8 33 -23 80
-34 105 -23 52 -51 91 -52 72 0 -7 -4 -10 -10 -7 -5 3 -10 0 -10 -7 0 -9 -2
-10 -8 -2 -5 9 -16 9 -42 0 -30 -10 -35 -16 -34 -42 2 -45 49 -137 101 -194
25 -28 44 -52 42 -54 -2 -2 -40 -25 -84 -52 -44 -26 -106 -67 -137 -91 -31
-24 -59 -43 -62 -43 -3 0 -6 15 -6 33 0 49 -42 127 -93 175 -46 41 -71 56 -47
27 11 -13 10 -14 -5 -9 -14 6 -16 4 -10 -6 6 -10 4 -12 -8 -7 -10 3 -17 2 -17
-3 0 -5 -7 -7 -15 -4 -18 7 -20 -7 -2 -25 10 -11 9 -14 -1 -18 -9 -3 -7 -12 8
-33 29 -40 25 -43 -12 -9 -36 33 -50 37 -41 12 4 -10 2 -14 -4 -10 -6 4 -13
-3 -16 -14 -4 -15 -11 -20 -23 -15 -14 5 -15 4 -4 -9 7 -8 17 -12 23 -8 6 4 7
1 2 -6 -10 -18 91 -113 151 -141 l46 -23 -34 -12 c-19 -6 -51 -24 -71 -39
l-37 -28 -10 26 c-26 70 -155 163 -234 169 -28 2 -31 0 -28 -25 2 -14 -2 -29
-7 -33 -7 -3 0 -16 17 -30 23 -20 24 -23 7 -22 -11 1 -20 -4 -21 -13 -3 -31
-17 -60 -27 -53 -5 3 1 -13 14 -37 27 -48 71 -88 112 -102 15 -6 27 -14 25
-18 -5 -13 -147 -130 -158 -130 -5 0 -10 6 -10 14 0 22 -93 110 -138 130 -34
15 -44 16 -57 6 -8 -7 -13 -16 -10 -20 3 -5 -1 -10 -7 -13 -10 -3 -10 -9 -1
-25 11 -18 10 -22 -6 -27 -10 -3 -30 -1 -45 5 -18 6 -25 6 -21 0 3 -5 1 -18
-4 -27 -6 -10 -11 -14 -11 -9 0 5 -7 3 -15 -4 -13 -11 -18 -10 -30 6 -13 17
-14 16 -6 -12 18 -63 75 -136 137 -175 37 -23 42 -40 19 -59 -29 -24 -162
-195 -227 -292 l-65 -97 -31 39 c-19 22 -49 45 -75 55 -46 17 -128 17 -134 0
-5 -17 96 -124 138 -146 22 -10 39 -22 39 -24 0 -17 -55 -85 -69 -85 -9 0 -3
-8 15 -19 38 -23 88 -86 80 -100 -4 -5 -2 -12 4 -16 5 -3 10 -21 9 -38 0 -27
-2 -29 -9 -12 -6 14 -9 5 -9 -36 -2 -102 -60 -128 -160 -73 -24 13 -45 24 -46
24 -1 0 -29 -56 -61 -125 -32 -69 -62 -125 -66 -125 -3 0 -9 13 -13 30 -4 16
-19 38 -33 49 -50 35 -233 122 -243 115 -16 -9 0 -122 22 -167 24 -46 86 -93
136 -101 50 -9 93 -26 93 -38 0 -5 -7 -25 -16 -46 -8 -20 -35 -106 -59 -191
-25 -85 -47 -156 -50 -159 -3 -3 -15 3 -27 14 -22 18 -22 18 0 -8 l24 -26 -27
-119 c-15 -65 -32 -137 -39 -160 -12 -41 -12 -41 8 -29 12 7 32 12 46 10 14
-1 32 3 40 10 13 9 13 9 3 -5 -10 -12 -73 -156 -73 -166 0 -2 7 -3 16 -3 8 0
12 -4 9 -10 -11 -17 -60 -11 -111 15 -60 31 -80 31 -95 4 -12 -23 0 -39 30
-39 11 0 9 4 -5 15 -17 13 -17 14 -2 15 9 0 29 -6 44 -12 l27 -13 -24 -6 c-18
-4 -12 -7 29 -13 49 -7 53 -10 48 -30 -3 -11 -6 -36 -6 -55 0 -31 -2 -33 -26
-27 -40 10 -92 -11 -110 -46 -15 -29 -15 -31 14 -67 45 -56 87 -81 127 -74 19
3 45 3 59 -1 23 -6 26 -11 26 -54 0 -59 -16 -119 -42 -154 -18 -26 -47 -41
-33 -18 3 6 2 10 -4 10 -5 0 -16 3 -25 6 -21 8 -21 -14 1 -38 14 -16 16 -40
14 -165 -1 -142 -2 -148 -32 -207 -45 -88 -66 -114 -111 -137 l-41 -21 8 48
c4 27 22 90 40 140 19 51 37 113 40 138 l7 45 35 -14 c42 -18 46 -18 37 -4 -3
6 -21 17 -38 24 -27 12 -34 22 -44 63 -7 34 -8 61 -1 85 11 41 1 75 -32 106
-13 12 -31 21 -42 21 -17 0 -18 -6 -14 -45 2 -25 10 -53 18 -63 8 -9 26 -37
39 -62 32 -60 31 -151 -5 -247 -38 -98 -62 -182 -70 -241 -4 -29 -10 -54 -14
-57 -9 -5 -87 105 -96 137 -11 34 -54 88 -78 97 -42 15 -83 22 -67 11 9 -6 10
-10 3 -10 -6 0 -18 -6 -25 -14 -10 -10 -27 -11 -64 -6 -55 9 -65 6 -43 -13 22
-18 47 -52 32 -43 -27 16 -11 -12 32 -57 52 -55 83 -60 160 -26 45 20 47 20
67 2 11 -10 31 -37 45 -61 22 -36 25 -51 20 -93 -6 -50 -15 -69 -93 -199 -38
-63 -39 -68 -37 -150 1 -47 9 -116 17 -153 25 -106 22 -108 -51 -45 -26 23
-67 50 -91 60 -38 17 -49 18 -104 7 -40 -8 -72 -21 -91 -39 l-29 -26 53 -58
c30 -33 68 -65 86 -73 70 -29 150 -10 189 46 8 11 26 21 38 21 19 0 27 -10 41
-47 23 -61 92 -200 116 -235 27 -37 24 -41 -21 -35 -25 3 -53 17 -74 35 -45
39 -97 56 -150 48 -77 -13 -115 -59 -59 -72 46 -10 49 -12 17 -13 -31 -1 -79
-42 -66 -57 4 -4 -2 -4 -13 -1 -14 5 -11 0 10 -18 17 -14 52 -32 79 -40 67
-20 114 -7 155 43 17 20 36 44 44 52 9 11 26 14 61 12 47 -4 49 -6 87 -66 58
-93 69 -107 80 -101 14 9 11 35 -4 35 -7 0 -33 34 -57 75 -24 41 -48 75 -52
75 -5 0 -12 10 -17 23 -5 12 -26 51 -46 87 -74 130 -124 283 -130 398 -3 65 8
79 36 46 10 -13 10 -17 -1 -24 -11 -7 -10 -11 2 -24 9 -9 14 -24 11 -34 -3
-15 8 -25 55 -48 l60 -29 6 -57 c15 -127 93 -378 118 -378 4 0 8 -12 8 -27 1
-27 1 -27 21 9 10 21 33 44 49 53 39 20 41 19 34 -9 -3 -14 -2 -32 4 -42 5 -9
6 -31 2 -49 -5 -23 -1 -52 15 -99 12 -37 25 -69 27 -72 3 -2 11 10 18 27 8 17
27 40 44 50 38 23 53 24 31 3 -9 -9 -14 -23 -11 -30 3 -8 1 -14 -5 -14 -6 0
-8 -4 -4 -9 3 -5 0 -13 -6 -17 -8 -4 -9 -3 -5 4 4 7 2 12 -3 12 -6 0 -11 -6
-11 -12 0 -7 -8 -23 -18 -35 -16 -21 -18 -21 -52 -6 -53 24 -64 25 -48 5 7 -9
24 -29 38 -43 33 -34 50 -107 50 -220 l0 -89 -43 21 c-40 20 -45 20 -79 6 -25
-11 -43 -28 -57 -56 -12 -22 -21 -43 -21 -46 0 -3 25 -5 55 -5 46 0 59 4 88
30 19 17 39 30 43 30 5 0 20 -25 32 -55 21 -48 80 -117 161 -190 13 -11 29
-35 37 -53 14 -34 34 -35 34 -3 0 10 -9 21 -20 24 -25 7 -26 27 -1 27 10 0 24
7 31 15 11 13 8 15 -13 15 -14 0 -28 -6 -30 -12 -4 -9 -8 -9 -14 -3 -4 6 -27
23 -51 39 -46 32 -104 103 -127 160 -10 23 -15 69 -15 136 l0 101 39 -22 c22
-12 59 -41 82 -65 40 -40 41 -45 27 -61 -9 -10 -20 -31 -24 -48 -7 -28 -6 -29
12 -15 10 8 24 21 30 29 9 12 16 6 38 -32 30 -50 51 -62 87 -49 29 11 49 5 49
-13 0 -8 8 -16 18 -19 10 -4 31 -19 46 -35 l27 -29 -62 -11 c-65 -11 -112 -42
-94 -60 9 -9 78 4 128 24 17 7 22 -10 17 -60 -1 -11 0 -18 3 -15 6 6 19 65 21
92 1 23 16 11 16 -13 0 -19 22 -25 77 -20 18 1 23 -5 28 -41 4 -24 5 -65 3
-93 -3 -49 -4 -50 -37 -53 -60 -6 -180 28 -229 66 -56 43 -66 35 -13 -10 l40
-34 -34 -18 c-44 -24 -53 -52 -26 -77 29 -27 34 -24 27 16 -5 24 -3 35 5 35 6
0 19 9 29 20 16 18 19 18 66 4 27 -8 84 -16 126 -17 65 -2 77 0 74 13 -12 42
-16 89 -8 93 4 3 8 -2 9 -11 11 -120 15 -148 24 -159 21 -25 29 -13 29 41 l0
54 66 31 c72 33 89 36 129 21 24 -9 25 -11 12 -37 -8 -16 -12 -34 -9 -42 3 -8
0 -11 -7 -7 -6 4 -11 0 -11 -9 0 -9 4 -14 9 -10 6 3 14 -2 19 -11 8 -15 16
-10 54 30 66 68 116 62 80 -11 -28 -55 -35 -96 -27 -164 9 -73 16 -69 70 35
22 42 43 76 47 76 4 0 19 -21 32 -47 13 -27 54 -88 90 -136 36 -49 63 -93 60
-99 -4 -6 -35 -9 -78 -6 -68 5 -82 11 -299 124 -290 152 -289 151 -296 163 -8
12 -94 52 -99 46 -8 -7 10 -25 24 -25 8 0 53 -25 98 -55 72 -47 247 -143 443
-243 33 -16 53 -33 53 -43 0 -9 6 -19 14 -22 8 -3 16 -16 18 -29 4 -21 5 -21
13 -4 5 11 4 26 -3 37 -7 10 -12 21 -12 23 0 2 32 6 72 8 71 4 73 3 101 -29
16 -18 56 -49 89 -69 l60 -37 -25 -15 c-27 -17 -73 -89 -63 -99 3 -4 16 -1 29
5 12 6 33 14 47 18 36 10 50 23 50 50 0 17 6 24 20 24 33 0 23 17 -14 23 -58
9 -206 112 -206 143 0 6 14 17 30 24 17 7 45 30 63 51 27 33 39 40 82 45 58 6
135 38 135 55 0 9 -20 10 -77 5 -90 -8 -104 -15 -131 -58 -24 -38 -69 -82 -94
-91 -13 -5 -34 16 -86 86 -81 108 -118 176 -126 235 -6 39 -5 42 16 42 44 0
64 -12 76 -43 9 -24 14 -29 24 -19 7 7 27 12 45 12 18 0 42 5 52 12 27 16 85
-4 169 -60 153 -101 382 -241 460 -281 45 -24 82 -49 82 -57 0 -9 11 -14 30
-14 32 0 37 -9 19 -27 -14 -14 -5 -29 21 -36 13 -3 23 0 27 9 3 8 10 14 15 14
5 0 78 -28 161 -61 153 -62 217 -83 217 -70 0 4 16 13 35 20 19 7 35 15 35 19
0 14 128 72 200 90 l75 19 -128 62 c-70 33 -132 61 -137 61 -4 0 -28 19 -52
42 -24 23 -34 37 -23 31 11 -6 54 -16 95 -23 41 -7 129 -28 195 -46 128 -37
282 -68 380 -78 128 -13 136 -16 147 -46 13 -39 74 -63 137 -55 76 11 82 14
75 40 -5 21 -2 25 30 30 19 4 56 5 81 3 25 -2 45 0 45 4 0 5 -50 33 -110 63
-167 82 -200 115 -200 196 0 34 -7 36 -215 74 -146 26 -400 92 -489 125 -28
11 -61 20 -73 20 l-22 0 24 -59 c26 -62 66 -203 60 -209 -4 -5 -78 42 -92 59
-31 38 -50 173 -29 219 5 12 -19 28 -106 69 -80 37 -124 65 -150 94 -21 22
-38 45 -38 50 0 5 -9 7 -20 4 -10 -3 -24 1 -31 9 -7 9 -31 14 -63 14 -55 0
-121 31 -114 53 3 7 24 22 48 35 41 22 44 22 69 6 14 -10 42 -33 61 -53 42
-42 116 -81 168 -88 37 -4 49 6 80 69 6 13 -85 58 -117 58 -17 0 -49 -9 -71
-20 -47 -24 -50 -24 -50 -6 0 19 143 146 164 146 9 0 16 5 16 11 0 5 -5 7 -11
3 -16 -9 18 53 62 114 25 36 38 48 41 37 2 -13 10 -10 38 15 25 22 40 29 55
24 27 -9 245 -21 245 -13 0 4 -23 17 -52 29 -42 18 -65 21 -114 17 -62 -5 -97
4 -75 17 6 4 18 22 27 39 l16 32 -31 -35 c-16 -19 -30 -41 -31 -47 0 -13 -48
-49 -54 -42 -2 2 17 42 43 89 35 64 52 86 70 88 20 3 21 1 12 -17 -18 -33 -12
-38 13 -8 l23 29 239 5 c251 5 327 15 393 54 l34 20 72 -71 72 -71 -5 -55 -4
-54 160 0 160 0 6 45 c4 25 4 49 1 55 -3 5 -26 10 -51 10 -42 0 -51 5 -106 57
-33 32 -87 88 -119 124 l-59 66 37 84 c30 68 37 100 41 167 l5 84 221 -3 c240
-3 271 2 282 46 12 48 -3 73 -48 86 -23 6 -53 19 -66 30 -35 27 -70 25 -82 -6
l-10 -25 -164 0 c-161 0 -166 1 -177 23 -7 12 -23 35 -35 50 -13 16 -24 34
-24 42 0 7 51 71 113 142 61 71 135 156 162 188 28 32 118 135 200 228 83 93
166 189 185 212 57 70 127 151 271 315 74 85 200 229 278 320 266 305 315 359
323 354 4 -3 8 -19 8 -37 0 -17 11 -47 24 -66 13 -20 29 -65 36 -101 11 -58
10 -66 -5 -75 -58 -36 -201 -143 -262 -198 -256 -227 -448 -543 -533 -878 -63
-246 -70 -515 -20 -767 23 -113 94 -339 114 -360 10 -10 20 -6 51 21 l38 33
-36 105 c-148 421 -121 856 78 1264 52 105 166 276 245 365 67 76 223 212 308
269 l62 42 10 -26 c14 -37 15 -36 -43 -75 -280 -189 -505 -487 -611 -813 -63
-190 -71 -248 -71 -492 0 -194 3 -232 23 -323 71 -315 215 -584 432 -803 93
-93 208 -189 293 -242 15 -10 27 -21 27 -26 0 -18 -355 -167 -510 -214 -240
-73 -487 -119 -725 -137 -82 -6 -151 -13 -153 -14 -1 -2 19 -20 45 -41 27 -22
55 -46 65 -56 9 -9 44 -38 77 -64 34 -27 60 -54 59 -62 -2 -9 13 -20 37 -29
48 -16 84 -18 121 -4 25 10 26 13 21 58 -4 26 -9 59 -12 73 l-5 27 178 -5
c174 -5 178 -6 221 -34 25 -16 54 -29 65 -29 35 0 251 77 359 128 l103 49 68
121 c37 67 71 124 75 127 5 2 19 -6 32 -19 13 -12 41 -38 61 -55 l38 -33 64
41 c62 39 64 39 70 18 3 -12 1 -23 -4 -25 -16 -6 -11 -22 6 -22 23 0 12 -22
-24 -45 -17 -11 -31 -22 -32 -25 0 -3 26 -25 57 -50 32 -25 80 -64 106 -88 48
-42 48 -42 76 -26 54 32 199 139 244 180 43 39 49 41 112 43 76 1 260 39 373
76 132 43 347 157 462 244 305 229 521 567 607 950 23 103 26 139 27 311 1
149 -4 216 -17 285 -62 315 -170 549 -349 763 -38 45 -66 87 -63 92 4 6 2 9
-3 8 -5 -2 -43 26 -84 62 -71 62 -108 92 -153 126 -11 9 -13 12 -5 8 9 -4 12
-3 7 2 -5 5 -14 9 -20 9 -7 0 -70 29 -142 63 -225 110 -381 158 -595 183 -217
25 -488 -14 -700 -100 -69 -29 -76 -30 -87 -14 -7 9 -13 22 -13 29 0 20 136
73 283 111 136 34 151 36 359 40 238 6 219 0 233 69 6 29 4 32 -26 38 -17 3
-100 6 -183 6 -198 0 -361 -26 -549 -87 -43 -14 -80 -23 -83 -21 -7 8 52 180
80 237 24 46 130 206 161 241 53 60 115 251 115 354 0 55 -18 142 -36 178 -14
27 -13 28 25 48 22 11 43 20 46 20 10 0 35 -68 35 -94 0 -13 -7 -31 -15 -40
-18 -18 -20 -89 -4 -137 23 -67 92 -138 123 -126 11 5 9 15 -10 53 -23 45 -24
58 -23 204 0 85 -2 167 -6 182 -5 21 1 38 35 86 l42 59 -20 47 c-26 57 -73 84
-124 70 -25 -7 -39 -21 -58 -56 -55 -100 -99 -121 -254 -117 -50 1 -142 3
-204 3 l-113 1 -42 -44 c-35 -38 -49 -46 -92 -52 -27 -4 -78 -14 -113 -22 -56
-14 -64 -14 -78 0 -13 14 -21 14 -54 3 -21 -7 -50 -22 -65 -34 -26 -21 -26
-23 -11 -39 11 -11 15 -24 11 -38 -5 -14 0 -28 13 -42 12 -12 35 -62 52 -110
24 -69 30 -98 25 -130 -6 -37 -3 -45 19 -64 24 -22 55 -97 43 -109 -9 -9 -310
-82 -1007 -244 -168 -39 -433 -103 -590 -141 -471 -116 -467 -115 -547 -69
-57 33 -63 43 -35 60 14 9 12 10 -13 6 -25 -5 -38 2 -80 40 -42 39 -46 45 -25
41 28 -7 56 6 46 21 -3 5 1 13 10 16 10 4 18 -1 21 -14 3 -10 13 -22 23 -25
24 -8 71 -55 65 -65 -3 -5 4 -6 15 -3 10 3 26 -2 35 -11 17 -17 115 -23 115
-8 0 5 -6 9 -12 9 -30 2 -115 29 -137 45 -23 17 -24 17 -7 53 10 21 14 45 11
58 -11 34 -66 119 -96 149 -30 28 -81 44 -100 32 -14 -8 -5 -135 12 -166 6
-11 8 -22 5 -25 -10 -10 -35 18 -48 54 -12 33 -14 34 -57 31 l-44 -3 -18 53
c-10 28 -14 52 -8 52 5 0 9 5 9 10 0 6 -9 10 -19 10 -14 0 -22 12 -31 49 -11
45 -10 51 9 70 13 13 21 34 21 54 0 17 3 41 6 52 4 16 -2 25 -23 35 -15 8 -32
21 -36 27 -4 7 -15 13 -22 13 -8 0 -15 5 -15 10 0 6 11 10 25 10 53 0 22 25
-50 39 -26 5 -33 15 -57 76 -28 69 -75 125 -107 125 -29 0 4 16 59 30 30 7 91
30 135 50 80 38 80 38 247 44 158 6 218 17 218 39 0 5 -17 26 -38 47 -37 38
-91 60 -144 60 -16 0 -28 2 -28 4 0 14 32 62 45 66 12 4 12 7 -5 17 -17 12
-20 9 -30 -25 -5 -20 -13 -42 -18 -49 -4 -7 -67 -14 -180 -18 -169 -8 -172 -7
-172 13 0 34 -69 45 -106 17 -19 -15 -19 -15 0 -30 19 -14 18 -15 -12 -15 -24
0 -30 4 -26 15 4 10 0 15 -10 15 -9 0 -19 -7 -22 -15 -5 -11 -22 -15 -63 -15
-48 0 -66 5 -105 31 -26 18 -63 52 -82 78 -41 54 -122 125 -176 152 -74 38
-188 10 -188 -46 0 -13 -5 -27 -11 -30 -15 -10 29 -49 59 -53 13 -1 56 -26 95
-55 l72 -52 -52 -6 c-67 -9 -73 -13 -73 -59 0 -45 28 -73 92 -92 21 -6 53 -25
69 -42 17 -18 27 -24 24 -13 -4 9 -3 17 3 17 14 0 153 -57 164 -68 4 -4 -16
-18 -46 -31 -30 -12 -58 -30 -62 -39 -4 -9 -10 -59 -14 -109 -7 -117 -20 -132
-53 -67 -32 62 -58 86 -130 119 -41 19 -82 29 -138 32 l-80 6 30 -46 c66 -96
179 -164 285 -170 55 -3 64 0 116 34 31 20 70 53 87 72 17 20 45 43 62 51 21
11 34 28 42 56 10 31 17 40 35 40 25 0 94 -57 94 -78 0 -7 11 -28 23 -45 28
-37 65 -133 77 -197 5 -25 12 -53 15 -62 6 -14 2 -18 -16 -18 -16 0 -20 3 -11
8 12 8 7 42 -7 42 -4 0 -22 -15 -40 -34 l-33 -34 29 -6 c15 -4 42 -2 60 3 31
9 32 8 51 -37 26 -63 35 -102 22 -102 -5 0 -10 7 -10 15 0 22 -9 19 -68 -20
-28 -20 -66 -38 -83 -42 l-31 -6 6 39 c12 71 14 126 7 145 -5 16 -11 11 -31
-26 -14 -25 -30 -45 -36 -45 -6 0 -22 -9 -35 -21 -13 -11 -37 -28 -54 -37 -26
-14 -27 -17 -10 -20 10 -2 26 4 35 14 9 11 22 20 30 22 8 2 23 11 33 19 24 22
22 4 -7 -62 -23 -50 -28 -55 -57 -55 -17 0 -53 8 -81 17 -56 21 -68 13 -68
-44 0 -27 3 -32 23 -30 39 3 127 -13 127 -24 0 -5 -14 -38 -31 -72 -33 -67
-75 -117 -96 -117 -9 0 -13 -14 -12 -42 1 -42 1 -42 11 -15 8 23 15 28 34 23
16 -4 29 0 44 16 18 19 75 114 115 193 6 10 28 26 50 33 22 8 52 18 66 24 16
6 37 28 53 59 23 41 32 49 57 49 28 0 34 -8 30 -38 -1 -8 4 -21 13 -30 20 -24
56 -121 49 -137 -2 -8 2 -24 11 -37 25 -35 20 -45 -31 -62 -27 -9 -63 -25 -82
-37 -28 -17 -32 -23 -20 -31 11 -7 9 -9 -8 -5 -14 3 -28 -3 -40 -16 -14 -17
-14 -19 -1 -9 11 9 17 9 20 2 2 -7 27 1 63 19 54 27 87 35 122 32 7 -1 -17
-43 -53 -93 -35 -51 -79 -114 -97 -140 -34 -50 -51 -57 -82 -34 -17 13 -16 15
19 51 25 25 43 35 57 32 23 -6 24 1 4 23 -21 24 -11 43 38 71 29 16 37 24 25
27 -9 2 -34 -8 -55 -22 -21 -14 -50 -28 -65 -31 -16 -4 -28 -10 -28 -15 0 -4
-16 -24 -36 -44 -42 -43 -35 -44 -181 11 -76 28 -103 42 -103 56 0 9 -4 17
-10 17 -15 0 -12 86 4 99 7 6 11 22 9 35 -3 14 2 35 11 48 19 27 22 107 4 109
-7 1 -22 2 -32 3 -13 1 -23 14 -32 41 -13 39 -14 39 -9 6 3 -19 8 -109 11
-199 l6 -165 -29 6 c-15 3 -68 14 -117 23 l-88 17 7 61 c3 33 10 65 14 71 14
18 -16 154 -43 196 -15 21 -29 39 -32 39 -3 0 -5 -48 -4 -107 1 -60 -2 -137
-7 -173 -8 -62 -9 -65 -37 -68 -15 -2 -39 -1 -51 2 -22 6 -23 10 -23 98 1 74
5 98 20 117 10 13 18 28 18 33 0 6 9 21 20 35 26 33 20 38 -25 23 -51 -17 -92
-55 -121 -111 -23 -46 -27 -49 -63 -49 -36 0 -40 3 -50 33 -23 70 -121 137
-198 137 -65 0 -71 -11 -38 -72 15 -29 37 -64 47 -77 10 -13 18 -27 18 -31 0
-4 -30 -13 -67 -20 -102 -19 -103 -26 -4 -22 l89 4 26 -38 c14 -21 26 -47 26
-57 0 -10 4 -16 9 -12 5 3 19 -9 31 -26 13 -17 31 -34 43 -38 18 -7 17 -9 -14
-29 -20 -13 -27 -22 -18 -22 9 0 28 9 42 21 62 48 167 61 120 14 -10 -10 -18
-23 -18 -29 0 -6 -16 -12 -35 -14 -81 -7 -241 -34 -317 -53 l-83 -21 -20 23
-21 24 3 -29 c3 -26 -23 -59 -36 -46 -2 3 -12 37 -21 75 -15 61 -24 87 -43
129 -3 5 1 5 8 1 10 -6 12 -2 8 13 -3 12 -1 23 5 25 18 6 -1 52 -43 99 -47 54
-49 76 -20 188 11 41 20 90 20 108 0 17 3 32 8 32 4 0 27 -14 52 -30 64 -42
73 -40 65 18 -11 83 -16 101 -36 125 l-19 25 55 116 c30 64 57 116 59 116 8 0
102 -145 125 -193 11 -24 28 -74 38 -112 l17 -68 38 43 c44 50 68 120 68 201
0 162 -55 255 -206 345 -16 10 -13 17 38 85 31 41 66 83 77 95 23 23 28 40 9
28 -7 -4 -8 -3 -4 4 4 6 12 9 19 6 7 -2 18 5 26 17 11 19 11 21 -2 16 -11 -4
-13 0 -10 14 3 10 0 19 -6 19 -6 0 -11 7 -11 15 0 11 8 8 30 -12 17 -14 30
-32 30 -39 0 -7 4 -14 8 -16 5 -1 23 -28 40 -59 18 -31 38 -62 46 -68 16 -13
40 -68 59 -136 l15 -50 1 85 c1 122 -17 256 -44 324 -13 33 -21 64 -18 70 12
21 136 181 181 234 44 53 45 53 91 47 25 -3 57 -8 71 -11 24 -5 24 -4 -8 25
-18 17 -37 31 -43 31 -16 0 -10 36 9 53 17 16 21 14 55 -21 34 -35 86 -64 222
-123 28 -12 61 -23 74 -25 22 -3 23 -1 19 49 -9 102 -73 206 -168 269 l-25 16
21 22 22 22 96 -93 c92 -89 138 -127 122 -100 -5 7 4 16 23 22 17 6 31 16 31
22 0 7 5 6 11 -3 8 -12 10 -8 7 17 -3 18 0 29 5 26 5 -3 6 12 2 38 -13 85 -35
144 -65 177 -16 18 -30 35 -30 37 0 3 11 11 23 20 21 14 27 14 57 -2 19 -9 62
-17 99 -18 87 -3 135 -13 199 -41 l53 -23 -7 22 c-19 63 -47 127 -56 133 -7 5
-9 2 -6 -8 4 -8 2 -21 -2 -28 -12 -19 -64 4 -78 35 -18 39 -54 78 -137 148
-16 14 -27 28 -23 32 4 4 19 -5 35 -19 29 -27 43 -33 43 -17 0 5 -9 13 -20 16
-11 3 -20 13 -20 20 0 8 -10 21 -22 31 -23 16 -23 16 7 9 50 -11 94 -36 145
-82 l49 -44 43 24 c24 13 85 42 135 63 53 22 91 44 89 50 -3 6 0 16 5 21 5 5
2 20 -6 37 -14 27 -14 30 5 43 11 8 20 22 20 31 -1 19 -54 82 -70 82 -6 0 -18
4 -28 9 -9 5 -26 12 -36 16 -10 3 -16 8 -13 11 3 3 20 -1 39 -9 18 -8 42 -17
53 -20 11 -3 29 -8 40 -12 18 -7 17 -5 -4 18 -37 41 -4 46 56 10 58 -35 108
-98 125 -156 12 -42 26 -60 39 -51 4 2 10 0 14 -6 3 -5 11 -10 17 -10 6 0 3
12 -7 26 -9 14 -15 27 -13 29 18 17 288 87 420 109 97 17 98 17 128 -5 25 -19
44 -23 120 -24 50 -2 88 0 85 4 -4 3 -29 20 -58 36 -50 30 -51 32 -63 96 -20
107 -45 150 -117 204 -21 15 -36 30 -33 32 2 2 23 -1 46 -7 89 -24 159 -124
176 -250 l7 -50 171 0 c322 0 616 -48 936 -152 191 -62 288 -102 453 -184 426
-214 813 -539 1117 -939 34 -44 65 -80 70 -80 4 0 12 -4 17 -9 5 -5 2 -6 -6
-1 -9 5 -12 3 -9 -6 3 -8 11 -13 17 -11 7 1 10 -2 6 -7 -8 -14 116 -211 128
-204 6 3 7 1 3 -5 -11 -18 4 -37 16 -21 7 11 8 9 4 -4 -6 -19 59 -157 73 -155
20 2 29 -4 35 -24 7 -22 7 -22 16 -3 8 19 9 19 9 -2 1 -33 -17 -38 -31 -9 -6
14 -15 26 -20 26 -5 0 -3 -10 4 -22 7 -13 11 -26 10 -30 -1 -5 2 -8 8 -8 5 0
7 -8 3 -17 -5 -15 -3 -14 10 2 15 19 16 19 26 -15 11 -35 11 -34 6 10 l-6 45
46 -3 45 -4 0 41 0 41 55 0 c30 0 55 4 55 9 0 5 14 11 30 13 17 3 30 1 30 -4
0 -4 4 -8 9 -8 6 0 3 12 -5 28 -7 15 -14 33 -14 40 0 7 -5 10 -12 6 -6 -4 -8
-3 -5 3 9 15 -93 210 -187 358 -74 116 -99 152 -169 244 -95 126 -108 141
-263 299 l-120 124 -206 22 -205 21 -39 34 c-86 74 -148 138 -180 185 -18 28
-32 51 -30 53 3 3 148 -10 246 -23 43 -5 44 -4 25 11 -11 9 -94 63 -185 119
-173 107 -360 206 -495 261 -44 18 -93 38 -108 46 -32 15 -47 3 -47 -38 0 -13
-6 -23 -12 -22 -13 0 -159 158 -166 177 -5 15 19 20 144 27 l119 7 -27 -29
c-16 -16 -28 -33 -28 -39 0 -5 78 -42 173 -83 149 -65 390 -189 467 -241 14
-10 63 -42 110 -72 47 -30 119 -82 160 -115 78 -63 118 -88 127 -80 2 3 -2 25
-10 49 -8 23 -25 77 -38 118 -28 94 -72 155 -100 140 -13 -7 -24 -7 -39 2 -26
17 -29 28 -17 58 5 14 9 34 8 44 -2 14 2 17 16 12 42 -16 -25 35 -131 99 -191
115 -465 243 -697 325 -371 132 -730 196 -1156 207 -128 3 -233 10 -233 15 0
4 6 17 12 28 10 16 10 22 -1 32 -11 11 -12 10 -6 -1 5 -9 3 -12 -6 -9 -8 3
-13 11 -11 17 1 6 -2 11 -8 11 -6 0 -10 -6 -10 -12 0 -9 -4 -8 -10 2 -5 8 -10
11 -10 6 0 -6 -5 -5 -11 1 -20 20 -56 3 -63 -30 -6 -28 -83 -113 -94 -102 -3
2 8 33 23 67 17 38 29 81 29 108 l1 45 -52 -3 c-41 -3 -53 0 -61 14 -8 14 -11
10 -16 -23z m-281 -507 c41 -31 68 -87 59 -121 l-6 -26 -33 37 c-18 20 -43 37
-56 38 -22 1 -41 26 -20 26 7 0 7 8 -1 26 -10 21 -9 27 3 35 19 12 18 12 54
-15z m-1491 -312 c3 -8 2 -12 -4 -9 -6 3 -10 10 -10 16 0 14 7 11 14 -7z m359
-513 c16 -18 10 -16 -23 9 -61 46 -71 56 -32 34 18 -10 43 -30 55 -43z m61
-67 c3 -8 2 -12 -4 -9 -6 3 -10 10 -10 16 0 14 7 11 14 -7z m4846 -884 c0 -5
-2 -10 -4 -10 -3 0 -8 5 -11 10 -3 6 -1 10 4 10 6 0 11 -4 11 -10z m56 -176
c-4 -9 -9 -15 -11 -12 -3 3 -3 13 1 22 4 9 9 15 11 12 3 -3 3 -13 -1 -22z
m-5925 -15 c29 -17 61 -41 71 -55 11 -13 25 -30 31 -37 7 -6 18 -25 25 -42
l12 -30 -17 24 c-37 52 -114 121 -160 145 -26 14 -40 25 -31 26 9 0 41 -14 69
-31z m4563 0 c5 -5 7 -12 3 -15 -8 -8 -95 15 -103 27 -6 11 88 -1 100 -12z
m1256 11 c0 -5 -5 -10 -11 -10 -5 0 -7 5 -4 10 3 6 8 10 11 10 2 0 4 -4 4 -10z
m-972 -96 c7 -21 16 -77 19 -124 9 -155 -32 -266 -171 -459 -79 -109 -126
-202 -159 -320 -24 -83 -43 -111 -78 -111 -26 0 -70 92 -62 131 4 20 0 35 -10
47 -12 13 -87 201 -87 217 0 1 26 12 58 23 145 54 279 168 339 289 30 61 36
83 36 140 1 38 -5 79 -12 91 -12 22 -9 27 41 72 29 27 57 48 62 46 5 -1 16
-20 24 -42z m810 10 c-4 -3 -12 5 -18 18 -12 22 -12 22 6 6 10 -10 15 -20 12
-24z m-1341 -14 c14 -11 32 -20 41 -20 12 0 12 -3 -2 -22 -29 -41 -84 -153
-94 -193 -6 -22 -13 -70 -17 -107 -4 -38 -10 -68 -15 -68 -4 0 -18 28 -30 63
-13 34 -27 67 -31 73 -5 5 -6 19 -3 31 4 14 -2 26 -20 41 -24 18 -86 136 -86
162 0 14 34 28 110 44 91 20 118 19 147 -4z m1380 4 c-3 -3 -12 -4 -19 -1 -8
3 -5 6 6 6 11 1 17 -2 13 -5z m40 -21 c1 -24 1 -25 -7 -8 -11 26 -12 35 -2 35
4 0 8 -12 9 -27z m-1320 -90 c-9 -38 -26 -94 -40 -124 -24 -54 -105 -165 -114
-156 -2 3 1 40 7 83 12 91 74 230 117 263 40 32 48 14 30 -66z m134 56 c86
-46 62 -199 -49 -306 -48 -45 -223 -140 -240 -129 -5 3 -12 15 -15 27 -4 16 6
34 43 73 89 94 121 162 156 335 5 21 9 23 46 17 22 -4 49 -11 59 -17z m-5066
-340 c-7 -36 -92 -151 -125 -169 -19 -10 -20 -8 -17 80 2 52 8 95 15 102 9 9
12 9 12 0 0 -10 5 -10 20 -2 15 8 20 8 20 -2 0 -9 3 -9 8 -2 11 17 40 24 45
11 3 -8 7 -5 12 6 11 27 17 13 10 -24z m205 10 c11 -6 11 -8 2 -9 -7 0 -11 -4
-8 -8 2 -4 -11 -6 -29 -4 -19 2 -49 -1 -66 -7 -43 -15 -50 -5 -17 24 22 19 35
23 65 18 21 -3 45 -9 53 -14z m4255 -285 c-77 -19 -176 -46 -220 -59 -296 -89
-501 -140 -885 -221 -146 -30 -299 -64 -340 -74 -94 -23 -284 -60 -313 -60
-52 0 9 21 158 55 88 20 261 60 385 90 410 99 901 214 1005 234 28 6 102 23
165 39 63 17 131 30 150 30 19 0 -27 -15 -105 -34z m124 -1 c-8 -10 -79 -94
-159 -188 -80 -93 -215 -251 -299 -350 -171 -201 -355 -405 -507 -566 -56 -59
-161 -175 -234 -257 -73 -83 -139 -153 -148 -157 -11 -4 -12 -2 -5 7 25 32 33
104 18 169 -28 129 -47 173 -88 211 -10 9 -17 22 -15 30 4 20 -54 97 -79 104
-13 3 -23 10 -23 16 0 5 6 6 13 2 9 -5 9 -4 0 6 -9 10 -15 9 -29 -4 -14 -14
-19 -15 -26 -4 -6 8 -7 -29 -4 -97 4 -92 15 -150 65 -345 53 -211 58 -237 45
-255 -8 -11 -31 -44 -51 -73 -29 -43 -41 -52 -57 -47 -70 19 -157 33 -197 30
l-47 -3 -30 91 c-29 89 -194 570 -231 672 -10 28 -33 91 -52 142 l-33 92 19
25 c11 13 66 86 123 160 57 75 112 140 122 146 10 5 31 10 47 10 15 0 107 18
203 40 96 22 240 54 320 70 311 63 328 67 635 143 33 8 132 36 220 61 88 25
227 64 310 86 82 23 151 43 154 45 2 3 11 5 19 5 12 0 12 -3 1 -17z m-4416
-40 c-7 -2 -21 -2 -30 0 -10 3 -4 5 12 5 17 0 24 -2 18 -5z m2050 -51 c15 -16
15 -19 -4 -31 -18 -10 -23 -10 -35 6 -15 21 -17 27 -7 36 11 12 29 8 46 -11z
m-1222 -61 c1 -9 3 -26 4 -39 1 -12 0 -20 -3 -18 -6 7 -32 -20 -32 -33 0 -6
-4 -11 -9 -11 -5 0 -17 -7 -25 -16 -9 -8 -16 -11 -16 -5 0 6 -11 11 -25 11
-19 0 -29 9 -41 38 -13 28 -18 33 -21 18 -3 -10 0 -23 6 -29 14 -14 15 -67 1
-67 -5 0 -10 10 -10 23 0 22 -8 30 -95 92 -17 13 -18 16 -5 25 8 5 36 10 62
10 26 0 50 5 53 10 4 6 39 9 81 8 59 -1 74 -5 75 -17z m1289 -86 c29 -19 60
-35 70 -35 36 0 30 -19 -7 -29 -97 -24 -89 -26 -107 28 -16 50 -20 71 -12 71
2 0 27 -16 56 -35z m-1951 -6 c6 -18 11 -40 11 -51 0 -10 7 -29 15 -41 8 -12
17 -50 19 -84 l6 -62 -25 9 c-19 7 -25 6 -25 -5 0 -7 5 -17 10 -20 6 -4 8 -11
4 -16 -6 -10 -78 -49 -90 -49 -4 0 -4 44 0 98 4 53 9 124 10 157 2 64 11 89
27 80 5 -4 9 -1 9 4 0 23 19 10 29 -20z m1810 -182 c41 -127 44 -161 20 -237
-7 -25 -8 -46 -1 -70 7 -22 11 -27 11 -14 1 11 12 31 25 43 l23 22 15 -33 c8
-18 39 -100 68 -183 29 -82 67 -190 85 -240 67 -183 216 -638 211 -643 -3 -3
-27 -5 -53 -6 -44 0 -48 2 -51 24 -8 74 -48 235 -83 337 -86 250 -216 448
-397 608 -50 44 -91 82 -91 85 0 3 13 20 29 38 l30 33 45 -27 c37 -21 47 -33
55 -67 25 -100 33 -121 65 -155 45 -50 59 -36 39 38 -8 30 -22 69 -31 85 -20
36 -170 185 -187 185 -15 0 -46 36 -46 54 0 7 18 40 41 72 22 33 59 87 82 121
23 34 45 59 48 57 4 -2 25 -59 48 -127z m-1001 59 c2 -3 2 -12 -1 -21 -5 -11
-21 -15 -61 -15 -70 0 -85 6 -78 32 5 19 10 20 70 15 36 -4 67 -9 70 -11z
m212 -62 c0 -12 -7 -14 -32 -8 -68 14 -75 23 -20 23 41 1 52 -2 52 -15z m1240
-9 c0 -3 -16 -20 -36 -37 -19 -17 -67 -71 -106 -120 -39 -48 -72 -88 -74 -88
-7 0 -56 170 -52 182 7 21 268 82 268 63z m-1033 -39 c26 -13 63 -27 80 -31
40 -8 45 -15 27 -39 -13 -18 -17 -17 -108 25 -72 33 -92 47 -84 57 15 17 30
15 85 -12z m197 -95 c9 -14 -4 -41 -19 -41 -21 0 -36 25 -23 38 14 14 35 16
42 3z m184 -27 c28 -19 28 -30 -4 -71 -28 -37 -48 -41 -83 -14 l-24 18 33 42
c37 45 45 48 78 25z m-1929 -29 c2 -2 6 -24 8 -49 5 -37 1 -53 -18 -81 -13
-19 -27 -35 -31 -35 -4 0 -4 -8 -1 -17 6 -15 4 -16 -9 -5 -8 7 -23 10 -32 6
-11 -4 -16 -1 -16 10 0 9 -3 16 -8 16 -12 0 -39 71 -45 120 -3 25 -3 39 0 31
4 -10 7 -11 13 -1 12 20 60 -33 60 -67 1 -25 2 -26 11 -9 6 10 11 36 11 58 -1
38 0 40 26 33 15 -4 29 -8 31 -10z m5721 -102 c1 -17 2 -17 15 1 12 16 22 17
77 11 35 -4 86 -13 113 -20 50 -13 50 -13 49 -51 l-2 -39 10 33 c7 21 17 32
30 32 26 0 218 -80 218 -91 0 -5 -49 -108 -110 -229 -60 -121 -110 -223 -109
-227 0 -5 52 94 115 220 63 125 119 227 124 227 13 0 45 -20 133 -83 l67 -49
0 -59 c0 -48 -4 -61 -20 -71 -11 -7 -20 -17 -20 -22 0 -5 8 -2 18 7 10 10 22
17 25 17 11 0 8 -124 -8 -290 -19 -204 -32 -270 -59 -294 -16 -15 -17 -18 -3
-13 10 4 17 2 17 -6 0 -13 -18 -84 -27 -107 -9 -21 -11 -29 -23 -80 -6 -25
-15 -49 -21 -55 -5 -5 -9 -17 -9 -27 0 -11 -9 -38 -20 -60 -11 -23 -20 -47
-20 -52 0 -26 -125 -259 -141 -263 -10 -3 -15 -11 -12 -18 5 -14 -26 -75 -38
-75 -8 0 -75 72 -107 115 -16 22 -20 24 -15 8 5 -12 34 -49 66 -82 l57 -61
-27 -32 c-16 -18 -38 -43 -50 -55 -13 -13 -23 -27 -23 -32 0 -10 -231 -235
-293 -286 -40 -32 -50 -36 -59 -24 -8 12 -9 11 -5 -2 6 -18 -19 -44 -97 -102
-55 -42 -66 -45 -67 -19 0 9 -5 3 -10 -15 -7 -23 -28 -44 -85 -83 l-76 -52
-51 17 c-75 24 -79 30 -62 72 21 50 18 55 -6 11 -11 -21 -24 -38 -29 -38 -16
0 -142 65 -168 86 l-23 19 32 45 31 45 -36 -40 c-35 -40 -35 -40 -63 -23 -41
25 -152 121 -152 133 -1 6 87 114 195 240 108 127 241 284 296 350 55 66 105
122 112 124 6 2 18 10 27 18 18 15 115 53 137 53 19 0 7 -49 -15 -65 -13 -9
-13 -14 -3 -20 8 -5 19 1 31 16 l19 24 0 -32 c0 -43 -29 -70 -71 -65 -4 1 -4
-9 -1 -21 4 -18 3 -20 -9 -11 -8 6 -25 15 -39 18 l-25 7 24 -20 c13 -12 31
-21 41 -21 10 0 20 -6 23 -14 7 -19 57 -27 57 -10 0 8 4 14 9 14 16 0 19 -80
6 -138 -8 -31 -10 -60 -6 -65 7 -7 25 91 36 196 3 27 12 62 21 79 8 16 13 32
10 36 -3 3 -6 0 -6 -6 0 -12 -59 -57 -66 -49 -3 2 0 26 6 52 8 38 8 50 -2 56
-10 6 -10 11 -1 20 18 18 35 0 28 -30 l-6 -26 22 23 c15 17 24 21 29 12 5 -9
9 -9 14 -1 28 45 16 -52 -13 -106 -16 -30 -15 -49 2 -35 14 12 57 5 57 -9 0
-5 -5 -8 -11 -6 -6 1 -14 -4 -16 -10 -3 -10 2 -11 19 -4 13 4 23 14 23 20 0
17 46 50 62 44 22 -9 15 27 -9 48 -18 15 -20 20 -9 28 9 6 10 11 2 15 -6 4
-11 1 -11 -6 0 -10 -2 -10 -9 1 -9 14 3 65 21 88 5 6 17 10 26 9 13 -2 17 -14
19 -50 1 -27 7 -54 13 -61 12 -14 4 -42 -18 -64 -12 -13 -12 -16 3 -27 9 -7
23 -21 32 -31 12 -14 12 -13 -1 9 -25 42 -21 71 7 48 7 -5 28 -22 47 -38 34
-27 160 -96 160 -88 0 3 -24 18 -52 35 -29 16 -63 39 -74 50 -12 11 -24 18
-26 16 -3 -3 -18 9 -34 27 -28 31 -19 30 21 -1 13 -10 16 -11 8 -1 -19 21 -16
47 7 63 11 7 29 35 40 60 12 26 26 47 31 47 6 0 25 -9 42 -21 l32 -21 -27 24
c-44 38 -86 60 -93 48 -3 -5 1 -10 10 -10 12 0 15 -6 9 -22 -18 -60 -76 -134
-94 -123 -6 4 -8 11 -5 16 4 5 -2 9 -12 9 -11 0 -14 3 -7 8 15 10 28 52 15 52
-9 0 -37 69 -32 80 1 3 13 3 28 2 16 -3 23 0 19 7 -4 6 -20 11 -37 11 -22 0
-29 5 -29 19 0 11 8 22 18 24 9 3 1 6 -18 7 -34 2 -34 2 -8 10 44 13 68 34 57
50 -15 25 -11 60 8 60 16 0 83 -67 83 -83 0 -5 -10 -6 -22 -2 -21 5 -21 5 2
-9 15 -9 29 -11 34 -6 11 11 -28 88 -62 126 -13 14 -21 32 -18 40 3 8 -1 14
-9 14 -40 0 -8 47 113 163 70 68 146 141 170 162 23 21 40 40 38 43 -3 2 -58
-47 -123 -110 -142 -139 -187 -178 -203 -178 -7 0 -10 -6 -7 -14 3 -8 -3 -22
-14 -32 -18 -16 -27 -8 -11 11 4 6 3 7 -2 3 -16 -13 -26 -9 -27 10 -1 16 -2
16 -6 0 -6 -23 -7 -23 -37 5 -19 18 -38 24 -78 26 -28 1 -57 6 -64 12 -8 7
-13 6 -16 -2 -8 -25 -26 2 -39 60 -7 33 -16 58 -19 56 -3 -2 -19 23 -35 56
-15 33 -30 58 -32 55 -2 -2 14 -42 36 -88 48 -100 61 -148 39 -148 -16 0 -64
97 -211 430 -52 118 -114 255 -137 305 -39 84 -40 90 -23 103 15 11 20 10 30
-5 12 -15 13 -15 13 4 0 16 11 24 50 37 88 29 181 45 185 32 11 -36 13 -38 14
-14 1 33 9 35 144 37 96 1 107 -1 107 -16z m-4623 -20 c7 -9 13 -11 18 -4 13
21 87 10 80 -12 -2 -7 -9 -38 -15 -70 -6 -31 -15 -55 -20 -52 -13 8 -19 -37
-10 -75 l8 -35 1 46 c1 31 7 51 19 63 11 9 24 41 31 71 7 31 18 55 25 55 7 0
36 -7 64 -15 51 -15 63 -27 41 -40 -6 -4 -36 -41 -66 -84 -31 -42 -58 -78 -59
-80 -2 -2 -10 1 -17 7 -18 15 -27 5 -27 -31 0 -22 4 -28 15 -23 11 4 15 -1 15
-17 0 -27 -16 -54 -26 -44 -4 3 -1 13 6 22 11 13 10 14 -4 9 -14 -5 -20 -24
-19 -61 1 -7 -4 -13 -9 -13 -6 0 -7 -7 -4 -16 3 -8 -1 -29 -10 -46 -10 -20
-12 -34 -6 -40 6 -6 17 10 32 49 12 32 30 72 41 89 10 17 19 37 19 45 0 13
100 172 112 177 4 2 12 19 18 37 9 27 15 33 28 26 9 -5 28 -13 42 -18 85 -33
140 -64 134 -76 -4 -6 -64 -88 -134 -182 -69 -93 -173 -234 -229 -313 -57 -79
-105 -141 -107 -140 -15 16 126 293 227 444 82 124 139 254 111 254 -4 0 -14
-6 -21 -12 -11 -10 -14 -10 -18 0 -9 24 -23 11 -48 -40 -13 -29 -42 -86 -65
-126 -22 -40 -40 -83 -40 -96 0 -42 -67 -159 -124 -217 -31 -31 -56 -61 -56
-65 0 -5 7 -1 15 10 13 18 14 18 12 -3 -1 -14 -8 -21 -22 -21 -25 0 -67 -41
-63 -61 2 -7 -3 -13 -11 -14 -8 0 -16 -6 -19 -14 -3 -8 0 -11 7 -7 6 4 11 2
11 -3 0 -6 -4 -11 -10 -11 -5 0 -10 -10 -10 -23 0 -23 -16 -47 -32 -47 -4 0
-5 8 -2 18 4 13 1 12 -14 -5 -48 -54 -87 -12 -80 84 3 29 2 50 -2 48 -4 -2
-19 33 -34 78 l-27 82 21 48 c16 36 20 58 15 87 -6 36 -5 39 18 42 l25 3 -26
58 c-42 91 -55 77 -48 -50 4 -60 3 -121 -3 -138 l-9 -30 -7 33 c-4 17 -11 32
-14 32 -4 0 -12 21 -19 48 -11 41 -58 171 -83 227 -18 43 -49 126 -49 135 0
12 83 38 147 46 l52 6 5 -33 c3 -19 8 -47 10 -64 2 -16 3 0 2 38 l-2 67 31 0
c26 0 36 -9 69 -60 24 -37 46 -59 55 -58 11 2 18 -8 21 -32 5 -29 8 -19 19 55
7 50 15 93 18 97 6 11 67 -3 80 -19z m-524 -120 c14 -38 46 -122 72 -188 113
-292 181 -533 145 -510 -12 7 -145 232 -165 278 -8 18 -14 28 -15 23 0 -6 -23
25 -50 67 -28 42 -53 77 -56 77 -5 0 22 -48 56 -100 72 -108 231 -384 228
-398 -7 -37 -40 -23 -121 54 -45 43 -98 92 -118 109 -19 16 11 -15 68 -71 57
-55 103 -104 103 -107 0 -17 -39 -3 -99 36 -95 62 -141 89 -141 84 0 -3 45
-34 100 -68 91 -58 115 -79 91 -79 -5 0 -26 -16 -47 -35 -21 -19 -44 -35 -51
-35 -7 0 -13 -5 -13 -12 0 -6 -10 -2 -22 10 -13 11 -72 54 -133 95 -122 82
-114 69 -129 215 l-6 62 28 -17 c20 -12 17 -7 -11 20 -21 20 -47 39 -57 42
-43 14 -48 58 -8 71 24 7 60 42 48 46 -9 3 -30 137 -30 192 0 26 8 38 50 69
27 20 56 37 63 37 8 0 42 -47 76 -105 34 -58 64 -105 67 -105 5 0 3 4 -31 60
-12 19 -38 65 -58 102 l-36 66 24 16 c13 9 29 16 34 16 6 0 24 -26 40 -57 35
-67 39 -61 11 16 -11 30 -19 56 -17 57 3 3 71 32 78 33 3 1 18 -29 32 -66z
m4494 -203 c226 -414 278 -507 296 -527 11 -13 17 -26 14 -30 -6 -5 -43 30
-72 69 -41 55 -99 123 -151 178 -115 122 -158 203 -189 359 -17 82 -15 116 6
109 6 -2 49 -73 96 -158z m-128 70 c1 -22 36 -144 57 -195 8 -22 -152 129
-167 157 -8 14 1 25 43 59 47 37 53 39 59 22 4 -10 8 -29 8 -43z m-3228 4 c32
-26 59 -50 59 -54 0 -3 -30 -38 -68 -76 -37 -38 -123 -134 -191 -214 -69 -80
-154 -177 -190 -215 -36 -39 -75 -82 -86 -95 l-19 -25 -6 25 c-8 32 -2 50 15
44 16 -6 45 33 45 61 0 21 12 47 45 100 23 37 9 24 -35 -34 -19 -24 -36 -39
-38 -33 -2 6 61 98 139 204 124 168 161 219 244 336 9 12 18 22 21 22 3 0 32
-21 65 -46z m-1864 20 c-3 -3 -12 -4 -19 -1 -8 3 -5 6 6 6 11 1 17 -2 13 -5z
m118 -57 c11 -11 14 -17 8 -13 -7 4 -21 3 -30 -3 -13 -7 -22 -3 -40 17 -12 14
-20 29 -17 33 6 11 54 -10 79 -34z m4945 -104 c131 -137 159 -175 233 -315 56
-107 95 -214 81 -227 -10 -10 -56 23 -154 110 -166 146 -259 225 -210 178 46
-45 139 -128 267 -239 69 -59 71 -63 58 -84 -13 -20 -13 -26 5 -61 37 -72 15
-67 -149 36 -35 22 -66 38 -68 36 -2 -3 44 -33 102 -67 103 -62 122 -79 88
-81 -11 0 -13 -3 -5 -6 6 -2 12 -16 12 -29 0 -22 -4 -24 -52 -26 l-53 -1 65
-7 c36 -3 81 -3 100 2 53 11 72 2 65 -32 -3 -16 -1 -46 5 -67 6 -21 14 -53 16
-70 4 -31 3 -33 -28 -34 l-33 -1 28 -8 c16 -5 35 -6 43 -3 27 10 14 -17 -18
-38 -18 -12 -25 -19 -15 -15 33 11 32 10 -178 -239 -194 -230 -331 -390 -347
-403 -13 -10 -24 -2 -70 55 -70 88 -91 120 -84 131 3 6 -2 12 -12 14 -9 3 -36
44 -60 93 -35 69 -41 89 -30 96 7 5 18 9 24 9 17 0 116 31 112 35 -2 2 -35 -5
-73 -15 -39 -11 -73 -20 -76 -20 -10 0 -28 47 -49 129 -27 107 -27 109 18 114
l37 4 -41 1 c-35 2 -43 6 -48 26 -11 45 -19 196 -10 197 5 1 61 5 124 9 l115
8 -120 -2 -120 -1 -3 34 c-4 39 16 191 27 209 4 8 19 8 50 1 24 -5 49 -8 55
-6 6 3 -10 8 -36 12 -26 4 -52 13 -57 19 -11 13 47 198 67 218 8 8 27 2 61
-16 64 -33 67 -26 4 10 -27 15 -50 29 -52 31 -11 8 112 213 127 213 4 0 39
-25 77 -56 l70 -56 -67 62 c-38 34 -68 67 -68 73 0 16 131 157 145 157 7 0 54
-44 105 -97z m-3078 30 c19 -21 54 -62 77 -92 l43 -55 -44 -35 c-98 -82 -405
-351 -419 -368 -14 -18 65 49 251 212 152 133 204 175 215 175 6 0 18 -12 27
-27 42 -75 78 -143 78 -150 0 -4 -27 -25 -60 -47 -33 -21 -60 -40 -60 -43 0
-3 12 3 27 12 71 47 95 57 104 48 6 -6 21 -46 33 -89 41 -143 42 -132 -6 -144
-68 -18 -80 -22 -76 -26 2 -2 28 3 58 11 62 16 70 11 70 -42 0 -27 -4 -33 -22
-34 -263 -8 -299 -8 -292 3 5 8 2 9 -12 3 -10 -5 -120 -10 -244 -12 -124 -2
-231 -5 -237 -8 -27 -10 -10 12 60 78 l72 69 -65 -54 c-124 -104 -151 -113
-143 -49 4 30 1 42 -17 59 l-22 20 25 38 c14 22 39 53 57 69 18 17 84 91 148
165 161 188 312 350 326 350 7 0 28 -17 48 -37z m1175 -25 c-3 -8 -6 -5 -6 6
-1 11 2 17 5 13 3 -3 4 -12 1 -19z m-3383 3 c3 -4 -1 -17 -9 -27 -14 -18 -14
-18 -15 9 0 26 13 36 24 18z m426 -101 c0 -5 11 -10 25 -10 24 0 85 -25 85
-35 0 -23 -27 -54 -51 -57 -16 -3 -29 -1 -29 4 0 4 -5 8 -11 8 -24 0 -62 41
-64 70 -2 26 1 30 21 30 13 0 24 -4 24 -10z m5193 -278 c37 -46 67 -91 67
-100 -1 -12 -8 -9 -25 13 -23 28 -25 28 -25 8 0 -12 -3 -24 -7 -26 -10 -6 -34
19 -27 26 6 5 -80 173 -97 192 -5 5 -9 14 -9 20 0 13 39 -29 123 -133z m-5759
76 c-4 -13 -17 -58 -29 -102 -19 -70 -25 -80 -56 -97 -54 -29 -57 -26 -41 44
28 124 36 141 73 159 47 25 62 23 53 -4z m1499 -178 c-3 -11 -7 -20 -9 -20 -2
0 -4 9 -4 20 0 11 4 20 9 20 5 0 7 -9 4 -20z m-602 -52 c35 -24 83 -62 107
-85 23 -24 50 -43 60 -43 15 0 17 -7 14 -42 -2 -24 -8 -48 -13 -54 -7 -8 -4
-11 8 -10 12 0 19 -7 21 -21 2 -12 11 -25 20 -28 16 -5 62 -91 62 -115 0 -5 4
-10 10 -10 5 0 7 -7 4 -15 -4 -8 -1 -15 5 -15 5 0 16 -10 22 -22 10 -18 8 -24
-10 -39 -20 -17 -13 -37 9 -24 16 10 12 -7 -10 -42 -22 -38 -21 -37 -55 -21
-16 7 -25 19 -25 33 0 26 -29 87 -31 65 -1 -8 0 -27 1 -41 1 -15 -10 -39 -25
-57 -15 -18 -25 -38 -23 -44 3 -7 16 6 29 30 13 23 26 42 29 42 3 0 7 -19 7
-42 2 -32 -4 -49 -20 -67 -22 -24 -7 -20 24 6 14 12 17 11 22 -7 3 -13 13 -21
24 -20 48 5 73 0 73 -17 0 -13 4 -11 13 7 18 35 45 38 53 5 8 -32 36 -48 69
-39 l25 6 -37 -78 c-45 -96 -71 -134 -93 -134 -22 0 -53 35 -48 52 3 7 -5 17
-16 23 -25 13 -107 113 -132 163 -10 20 -35 62 -54 92 -20 30 -46 80 -59 110
-13 30 -29 70 -37 87 -7 18 -11 39 -8 48 4 8 2 15 -4 15 -6 0 -16 21 -22 48
-6 26 -14 58 -17 71 -4 14 0 26 8 32 11 7 11 9 -3 9 -11 0 -19 11 -23 33 -3
17 -9 59 -15 92 -5 33 -12 70 -16 83 -9 31 4 28 77 -20z m4904 32 c3 -5 1 -10
-4 -10 -6 0 -11 5 -11 10 0 6 2 10 4 10 3 0 8 -4 11 -10z m-5859 -32 c-3 -13
-11 -81 -18 -153 -6 -71 -12 -131 -13 -132 -4 -6 -101 31 -132 50 -41 24 -38
42 26 149 39 65 52 80 86 92 55 20 58 19 51 -6z m6153 -21 c0 -21 -1 -21 -9
-2 -12 28 -12 37 0 30 6 -3 10 -16 9 -28z m55 -9 c9 -17 17 -43 17 -57 1 -27
4 -20 14 42 4 27 11 37 24 37 18 0 74 -39 57 -40 -5 0 -3 -6 3 -14 10 -11 9
-21 -3 -44 -28 -54 -136 -46 -136 10 0 10 5 18 11 18 5 0 7 5 3 12 -6 9 -9 9
-12 0 -2 -7 -8 -12 -13 -12 -6 0 -7 67 0 88 3 9 22 -12 35 -40z m-4898 16 c-3
-9 -6 -20 -6 -25 0 -6 -4 -7 -10 -4 -5 3 -10 -1 -10 -10 0 -10 -11 -30 -25
-47 -14 -16 -25 -36 -25 -44 0 -8 -4 -14 -9 -14 -14 0 -41 47 -41 72 1 28 45
63 76 60 12 -1 25 5 28 13 3 8 10 15 17 15 6 0 8 -7 5 -16z m5039 -33 c3 -5 1
-12 -5 -16 -5 -3 -10 1 -10 9 0 18 6 21 15 7z m54 -24 c13 -16 5 -27 -20 -27
-9 0 -27 -15 -39 -34 -13 -22 -28 -34 -40 -33 -11 1 -20 5 -20 10 0 5 7 7 15
3 8 -3 15 -2 15 3 0 13 59 91 69 91 5 0 14 -6 20 -13z m31 -42 c10 -12 10 -15
-4 -15 -9 0 -16 7 -16 15 0 8 2 15 4 15 2 0 9 -7 16 -15z m-34 -57 c-1 -47 -3
-53 -21 -51 -38 3 -52 9 -71 28 -15 15 -16 18 -3 13 17 -7 59 28 59 49 0 12
21 23 31 17 4 -2 6 -27 5 -56z m-5224 28 c-2 -9 4 -16 13 -16 8 0 15 -7 15
-16 0 -9 -5 -12 -11 -8 -9 5 -10 -1 -5 -20 3 -14 9 -37 12 -51 9 -35 -10 -31
-34 7 -16 24 -18 35 -9 40 8 5 8 11 2 16 -13 10 -17 30 -9 54 7 23 30 18 26
-6z m4868 -5 c0 -5 3 -17 7 -27 4 -11 3 -15 -4 -11 -14 9 -24 47 -12 47 5 0 9
-4 9 -9z m-2870 -20 c0 -11 -18 -38 -40 -61 -22 -23 -39 -49 -38 -57 2 -9 -2
-18 -8 -20 -7 -2 -14 17 -17 49 -12 99 -13 97 46 101 28 2 53 4 55 5 1 1 2 -7
2 -17z m-440 -70 l0 -60 -27 4 c-26 5 -235 29 -597 70 -76 8 -144 19 -150 23
-16 10 121 17 467 21 l307 3 0 -61z m3334 13 c3 -8 2 -12 -4 -9 -6 3 -10 10
-10 16 0 14 7 11 14 -7z m-264 -15 c0 -5 -11 -9 -25 -9 -24 0 -32 10 -19 22 8
8 44 -3 44 -13z m229 8 c6 -8 8 -17 4 -20 -3 -4 1 -7 9 -7 22 0 44 -28 31 -41
-6 -6 -18 -3 -35 11 -15 11 -30 20 -35 20 -4 0 -14 4 -22 9 -12 8 -12 12 -2
25 16 20 35 20 50 3z m-134 -17 c3 -5 1 -10 -4 -10 -6 0 -11 5 -11 10 0 6 2
10 4 10 3 0 8 -4 11 -10z m107 -60 c7 0 20 -5 28 -11 11 -8 4 -9 -27 -7 -24 2
-43 2 -43 0 0 -2 16 -10 35 -18 19 -8 35 -18 35 -22 0 -5 -13 -21 -30 -37 -16
-15 -27 -31 -25 -35 3 -4 -7 -10 -21 -13 -33 -6 -27 12 14 39 29 20 30 22 11
27 -12 3 -18 3 -15 0 3 -4 1 -12 -5 -20 -15 -17 -63 -18 -56 0 3 7 -1 21 -9
32 -18 24 -19 85 -1 85 7 0 19 -6 27 -12 12 -11 12 -10 1 4 -24 32 -1 41 34
14 19 -15 40 -26 47 -26z m-2544 34 c12 -4 22 -11 22 -16 0 -17 -63 -99 -70
-91 -6 7 -40 100 -40 110 0 5 64 3 88 -3z m-223 -55 l25 -51 -42 7 c-80 14
-81 15 -51 58 14 20 30 37 34 37 4 0 19 -23 34 -51z m-1062 -39 c375 -54 530
-79 541 -90 16 -16 -5 -29 -42 -25 l-37 5 38 -11 c34 -10 37 -14 36 -47 0 -49
-43 -207 -55 -205 -5 1 -18 4 -29 8 -11 3 -8 -1 7 -10 l28 -15 -25 -57 c-36
-81 -38 -82 -88 -71 -23 5 -56 7 -73 4 -17 -4 -33 -3 -37 0 -3 3 -27 7 -54 8
-50 3 -123 41 -238 126 -60 44 -135 92 -135 86 0 -5 141 -106 212 -151 91 -59
91 -55 -7 -50 -193 11 -189 9 -325 123 -63 52 -63 52 13 -20 42 -41 77 -76 77
-79 0 -11 -113 10 -121 23 -7 10 -9 8 -9 -5 0 -11 -4 -15 -12 -11 -6 4 -28 6
-49 6 -24 -1 -39 3 -43 13 -3 8 -12 12 -21 9 -10 -4 -15 0 -16 12 0 16 -2 16
-9 -3 -8 -19 -17 -22 -53 -21 -59 1 -72 9 -58 37 7 11 18 21 26 21 24 0 20 97
-5 138 -24 39 -24 42 -5 42 8 0 15 5 15 10 0 6 5 10 11 10 5 0 7 -4 4 -10 -3
-5 -2 -10 3 -10 5 0 14 -10 21 -22 l12 -23 -5 22 c-5 28 10 39 30 22 13 -10
13 -8 4 15 -13 35 -13 36 3 36 13 0 71 -108 117 -218 13 -29 24 -51 26 -49 3
2 -5 25 -16 51 -12 25 -18 51 -15 56 3 5 -5 25 -19 43 -14 18 -33 51 -42 72
-15 37 -15 40 3 52 13 10 15 16 6 21 -8 5 -9 13 -3 22 7 11 10 12 10 2 0 -7 4
-11 9 -7 9 5 60 -35 121 -95 47 -46 92 -82 96 -77 4 4 -181 169 -197 175 -12
5 -12 42 0 42 5 0 12 16 15 35 5 25 13 36 30 41 26 6 400 -45 590 -82 71 -13
131 -22 134 -19 3 3 1 5 -4 5 -5 1 -63 11 -128 25 -65 13 -223 38 -350 56
-127 18 -235 36 -240 41 -17 14 39 9 327 -32z m3887 26 c0 -3 -4 -8 -10 -11
-5 -3 -10 -1 -10 4 0 6 5 11 10 11 6 0 10 -2 10 -4z m-2370 -21 c0 -8 -7 -15
-15 -15 -16 0 -20 12 -8 23 11 12 23 8 23 -8z m2410 -13 c0 -4 -13 -16 -30
-25 -29 -18 -37 -14 -22 9 4 7 16 14 27 17 11 2 21 5 23 6 1 0 2 -3 2 -7z
m205 -52 c-3 -5 -13 -10 -21 -10 -8 0 -12 5 -9 10 3 6 13 10 21 10 8 0 12 -4
9 -10z m-2018 -22 c-3 -8 -6 -5 -6 6 -1 11 2 17 5 13 3 -3 4 -12 1 -19z m2033
-49 c11 -21 20 -40 20 -43 0 -10 -78 -29 -93 -23 -13 5 -12 14 7 60 24 62 37
63 66 6z m-2612 -63 c18 -18 8 -80 -20 -126 l-20 -34 -66 68 c-40 41 -61 71
-56 76 35 35 133 45 162 16z m-3268 -20 c4 -11 4 -29 -1 -38 -7 -13 -6 -16 4
-12 10 3 16 -4 20 -23 4 -21 0 -32 -16 -45 -29 -23 -50 -19 -58 12 -5 22 -7
23 -14 7 -4 -10 -5 -20 -2 -24 4 -3 -7 -25 -23 -48 -28 -41 -56 -65 -94 -78
-16 -6 -18 -4 -13 22 7 34 67 125 103 157 13 12 24 27 24 33 0 19 42 71 52 65
5 -4 13 -16 18 -28z m2691 14 c11 0 17 -4 14 -10 -8 -12 -62 -13 -69 -1 -8 12
6 22 22 16 7 -3 23 -5 33 -5z m2992 -22 c8 -28 5 -31 -18 -14 -10 7 -15 18
-11 24 11 18 23 14 29 -10z m-5579 -30 c-3 -7 -18 -23 -34 -35 -24 -19 -29
-21 -34 -7 -3 8 -2 12 3 9 5 -3 22 6 38 20 33 28 34 29 27 13z m2736 -66 c47
-47 52 -158 8 -185 -28 -18 -72 4 -130 63 -58 59 -79 103 -60 122 13 13 66 26
115 27 30 1 45 -5 67 -27z m4106 -88 c-29 -81 -36 -95 -46 -89 -5 3 4 33 22
70 35 71 46 79 24 19z m-4368 10 c6 3 14 1 18 -5 3 -6 1 -15 -6 -19 -8 -5 -11
-19 -7 -36 3 -20 -4 -46 -24 -86 -16 -32 -25 -58 -21 -58 5 0 26 36 46 80 20
44 41 80 46 80 12 0 13 -20 0 -40 -5 -9 -5 -19 2 -27 14 -17 28 -16 28 2 0 8
7 15 16 15 12 0 15 -7 11 -27 -3 -18 0 -31 11 -40 24 -18 31 -16 25 7 -4 14 0
20 11 20 12 0 16 -7 14 -27 -3 -26 -1 -28 32 -25 31 2 33 1 20 -12 -17 -17
-212 -29 -286 -17 l-40 6 40 111 c23 62 44 107 47 102 4 -6 11 -8 17 -4z m516
-103 c8 -17 -6 -27 -55 -41 -61 -17 -72 -6 -64 58 11 87 12 88 65 40 26 -24
51 -49 54 -57z m-1881 14 c21 -3 41 -13 44 -21 3 -7 12 -14 19 -14 8 0 19 -10
24 -22 8 -20 9 -18 7 12 l-2 35 59 0 c47 0 61 -4 72 -20 12 -17 14 -18 14 -2
0 14 7 17 38 13 20 -3 53 -5 72 -5 30 -1 51 -16 143 -101 60 -55 112 -100 115
-100 7 0 -150 147 -180 168 -30 22 -21 34 20 27 51 -8 114 -15 195 -19 55 -3
83 -12 143 -42 41 -21 74 -43 74 -49 0 -5 -20 -32 -45 -60 -47 -52 -54 -54
-170 -46 -16 1 -92 0 -167 -2 l-136 -5 -13 29 c-6 16 -16 32 -21 35 -6 4 -5
-3 1 -14 23 -42 16 -47 -74 -49 -47 -1 -87 3 -90 8 -4 5 -15 5 -27 -2 -18 -9
-24 -8 -35 7 -7 10 -13 29 -13 43 -1 14 -7 40 -15 56 l-13 30 -1 -42 c-1 -24
-5 -43 -9 -43 -16 0 -32 24 -32 48 0 13 -4 20 -10 17 -14 -9 -12 -82 3 -88 19
-8 -13 -27 -47 -27 -24 0 -27 3 -23 21 10 37 -24 95 -76 130 -11 7 16 62 43
89 13 13 29 18 47 15 16 -2 45 -7 66 -10z m5253 -234 c68 -85 124 -159 124
-165 0 -12 -16 6 -82 93 -22 29 -80 100 -129 157 -49 57 -89 106 -89 110 0 16
59 -49 176 -195z m-4400 168 c2 -4 13 -5 23 -2 10 3 22 0 25 -5 8 -13 -20 -42
-40 -42 -22 0 -94 39 -94 51 0 11 79 9 86 -2z m-993 -112 c7 -19 -4 -68 -14
-61 -10 6 -9 74 2 74 4 0 9 -6 12 -13z m1193 -56 c0 -16 -4 -17 -23 -8 -17 8
-20 13 -12 23 14 17 35 8 35 -15z m-935 -45 c5 3 9 0 9 -6 0 -6 5 -8 12 -4 7
5 30 7 52 5 24 -2 42 2 47 11 7 9 11 10 17 2 4 -7 25 -12 47 -13 42 -1 135 0
144 1 3 0 12 0 19 -1 16 -1 16 -21 -1 -21 -7 0 -26 -13 -42 -30 -23 -24 -31
-27 -43 -17 -13 10 -14 9 -3 -10 10 -19 8 -28 -13 -60 -13 -21 -35 -48 -48
-61 l-25 -22 -13 57 c-22 102 -34 111 -80 64 -18 -17 -32 -25 -38 -19 -11 11
-32 -41 -32 -78 0 -13 -3 -24 -8 -24 -4 0 -34 25 -67 56 -33 31 -76 68 -95 83
-87 65 -93 93 -17 89 45 -3 52 -6 55 -25 4 -25 32 -32 32 -9 0 8 15 17 35 20
19 4 35 12 36 19 0 9 2 9 6 -1 2 -6 9 -10 14 -6z m513 3 c5 7 94 -5 105 -15 5
-4 -101 -105 -178 -170 -67 -55 -102 -73 -62 -30 16 17 19 26 11 31 -7 4 -17
2 -23 -4 -19 -19 -37 -12 -37 13 0 13 6 29 14 35 8 7 18 27 22 44 14 66 35 96
66 95 15 -1 31 2 34 5 4 4 15 2 25 -3 10 -6 20 -6 23 -1z m-1534 -20 c0 -4 -7
-6 -15 -3 -8 4 -15 10 -15 15 0 4 7 6 15 3 8 -4 15 -10 15 -15z m307 -81 c-3
-8 -6 -5 -6 6 -1 11 2 17 5 13 3 -3 4 -12 1 -19z m-382 -10 c25 -11 25 -12
-41 -45 -74 -36 -115 -41 -134 -18 -15 18 -17 17 42 39 26 10 50 22 53 27 8
13 49 11 80 -3z m375 -16 c0 -5 -7 -17 -15 -28 -15 -19 -20 -8 -9 20 6 17 24
22 24 8z m362 -54 c1 -35 1 -75 0 -91 -1 -15 5 -44 13 -63 23 -56 15 -128 -13
-110 -6 4 -8 -2 -5 -14 3 -11 0 -20 -6 -20 -6 0 -11 -10 -11 -22 0 -13 -8 -36
-19 -51 -25 -39 -31 -20 -31 96 0 86 -11 109 -23 47 -3 -14 -4 4 -2 40 4 71
40 213 55 218 6 2 10 10 10 18 0 8 7 14 15 14 12 0 15 -14 17 -62z m448 -13
c0 -7 9 -24 21 -39 23 -30 18 -46 -16 -46 -17 0 -23 6 -24 23 0 12 -3 40 -7
62 -6 36 -5 38 10 26 9 -7 16 -19 16 -26z m560 13 c0 6 11 12 24 12 14 0 23
-5 21 -12 -14 -57 -27 -72 -39 -45 -3 6 -3 2 0 -10 4 -18 1 -23 -15 -23 -17 0
-21 6 -21 29 0 42 10 66 21 49 7 -10 9 -10 9 0z m-1671 -17 c9 -6 10 -11 2
-15 -13 -8 -31 1 -31 15 0 11 11 11 29 0z m195 -55 c-2 -6 -13 -17 -25 -24
-24 -15 -45 -6 -30 12 6 7 9 15 7 17 -2 2 8 4 24 5 17 1 27 -3 24 -10z m73
-116 c2 -29 -12 -32 -33 -8 -17 19 -17 21 -2 15 10 -3 20 -2 23 3 9 14 11 13
12 -10z m760 -37 c-2 -52 -4 -58 -24 -61 -13 -2 -23 2 -23 8 0 22 32 110 40
110 5 0 8 -26 7 -57z m743 -165 c0 -23 -3 -29 -11 -21 -6 6 -8 20 -4 32 9 30
15 26 15 -11z m-1633 -41 c19 -11 20 -14 7 -31 -15 -22 -28 -15 -39 22 -7 25
0 27 32 9z m798 4 c19 -8 19 -8 -4 -20 -19 -11 -25 -11 -32 0 -8 14 -13 5 -9
-16 1 -5 -4 -4 -11 2 -10 11 -9 16 7 28 22 16 22 16 49 6z m258 -57 c3 -3 1
-14 -6 -25 -8 -13 -15 -15 -24 -7 -19 15 -16 38 5 38 10 0 21 -3 25 -6z m-94
-29 c14 -8 24 -15 21 -15 -67 -15 -195 -18 -207 -6 -11 10 12 27 49 36 41 11
102 4 137 -15z m816 5 c-3 -5 -1 -10 4 -10 6 0 11 -5 11 -11 0 -8 -5 -8 -15 1
-13 11 -12 30 1 30 3 0 2 -4 -1 -10z m-1140 -15 c-45 -19 -95 -28 -95 -17 0
14 48 30 90 30 l35 0 -30 -13z m1172 -47 c-3 -8 -6 -5 -6 6 -1 11 2 17 5 13 3
-3 4 -12 1 -19z m-1107 -22 c0 -11 -10 -14 -37 -13 -52 4 -56 27 -4 27 29 0
41 -4 41 -14z m1807 -163 c21 -27 58 -73 84 -103 58 -69 93 -120 87 -126 -12
-11 -278 39 -379 72 -48 15 -116 84 -104 104 11 18 95 11 122 -10 32 -25 43
-18 18 10 -10 11 -15 23 -11 27 8 9 127 70 138 72 4 1 24 -20 45 -46z"/>
<path d="M5400 4129 c0 -5 5 -7 10 -4 6 3 10 8 10 11 0 2 -4 4 -10 4 -5 0 -10
-5 -10 -11z"/>
<path d="M5120 4030 c0 -20 5 -30 15 -30 10 0 15 10 15 30 0 20 -5 30 -15 30
-10 0 -15 -10 -15 -30z"/>
<path d="M5080 4000 c0 -29 3 -51 6 -48 7 8 8 88 0 95 -3 4 -6 -18 -6 -47z"/>
<path d="M5236 4017 c3 -10 9 -15 12 -12 3 3 0 11 -7 18 -10 9 -11 8 -5 -6z"/>
<path d="M5152 3969 c2 -7 10 -15 17 -17 8 -3 12 1 9 9 -2 7 -10 15 -17 17 -8
3 -12 -1 -9 -9z"/>
<path d="M5317 3839 c7 -7 15 -10 18 -7 3 3 -2 9 -12 12 -14 6 -15 5 -6 -5z"/>
<path d="M5320 3815 c0 -2 10 -10 23 -16 20 -11 21 -11 8 4 -13 16 -31 23 -31
12z"/>
<path d="M8122 4305 c0 -16 2 -22 5 -12 2 9 2 23 0 30 -3 6 -5 -1 -5 -18z"/>
<path d="M7621 4245 c0 -5 6 -21 14 -35 8 -14 14 -20 14 -15 0 6 -6 21 -14 35
-8 14 -14 21 -14 15z"/>
<path d="M8112 4230 c0 -14 2 -19 5 -12 2 6 2 18 0 25 -3 6 -5 1 -5 -13z"/>
<path d="M7651 4175 c0 -5 6 -21 14 -35 8 -14 14 -20 14 -15 0 6 -6 21 -14 35
-8 14 -14 21 -14 15z"/>
<path d="M8101 4164 c0 -11 3 -14 6 -6 3 7 2 16 -1 19 -3 4 -6 -2 -5 -13z"/>
<path d="M7882 4150 c0 -14 2 -19 5 -12 2 6 2 18 0 25 -3 6 -5 1 -5 -13z"/>
<path d="M7681 4105 c0 -5 8 -26 19 -45 11 -19 19 -30 19 -25 0 6 -8 26 -19
45 -11 19 -19 31 -19 25z"/>
<path d="M7892 4050 c0 -14 2 -19 5 -12 2 6 2 18 0 25 -3 6 -5 1 -5 -13z"/>
<path d="M7721 4015 c0 -5 6 -21 14 -35 8 -14 14 -20 14 -15 0 6 -6 21 -14 35
-8 14 -14 21 -14 15z"/>
<path d="M8082 3990 c0 -14 2 -19 5 -12 2 6 2 18 0 25 -3 6 -5 1 -5 -13z"/>
<path d="M7901 3964 c0 -11 3 -14 6 -6 3 7 2 16 -1 19 -3 4 -6 -2 -5 -13z"/>
<path d="M7761 3925 c0 -5 8 -26 19 -45 11 -19 19 -30 19 -25 0 6 -8 26 -19
45 -11 19 -19 31 -19 25z"/>
<path d="M8690 3823 c-52 -54 -75 -79 -50 -56 130 119 164 153 155 153 -5 0
-53 -44 -105 -97z"/>
<path d="M7801 3835 c0 -5 6 -21 14 -35 8 -14 14 -20 14 -15 0 6 -6 21 -14 35
-8 14 -14 21 -14 15z"/>
<path d="M8052 3770 c0 -14 2 -19 5 -12 2 6 2 18 0 25 -3 6 -5 1 -5 -13z"/>
<path d="M8261 3734 c0 -11 3 -14 6 -6 3 7 2 16 -1 19 -3 4 -6 -2 -5 -13z"/>
<path d="M7932 3695 c0 -16 2 -22 5 -12 2 9 2 23 0 30 -3 6 -5 -1 -5 -18z"/>
<path d="M8786 3635 c-11 -8 -16 -15 -10 -15 5 0 18 7 28 15 11 8 16 15 10 15
-5 0 -18 -7 -28 -15z"/>
<path d="M7942 3620 c0 -14 2 -19 5 -12 2 6 2 18 0 25 -3 6 -5 1 -5 -13z"/>
<path d="M8031 3624 c0 -11 3 -14 6 -6 3 7 2 16 -1 19 -3 4 -6 -2 -5 -13z"/>
<path d="M8326 3603 c-6 -14 -5 -15 5 -6 7 7 10 15 7 18 -3 3 -9 -2 -12 -12z"/>
<path d="M8698 3584 c-38 -20 -36 -28 2 -9 17 9 30 18 30 20 0 7 -1 6 -32 -11z"/>
<path d="M8306 3565 c-9 -26 -7 -32 5 -12 6 10 9 21 6 23 -2 3 -7 -2 -11 -11z"/>
<path d="M8615 3535 c-22 -13 -37 -25 -33 -25 9 0 78 41 78 46 0 6 -3 5 -45
-21z"/>
<path d="M8221 3534 c0 -11 3 -14 6 -6 3 7 2 16 -1 19 -3 4 -6 -2 -5 -13z"/>
<path d="M8465 3451 c-6 -5 -46 -28 -90 -51 -87 -45 -104 -57 -63 -41 25 9
168 88 177 97 9 8 -15 4 -24 -5z"/>
<path d="M8678 3319 c-21 -11 -38 -22 -38 -24 0 -3 18 4 40 15 22 11 40 23 40
25 0 7 0 7 -42 -16z"/>
<path d="M8594 3274 c-18 -14 -18 -14 6 -3 31 14 36 19 24 19 -6 0 -19 -7 -30
-16z"/>
<path d="M8540 3250 c-8 -5 -10 -10 -5 -10 6 0 17 5 25 10 8 5 11 10 5 10 -5
0 -17 -5 -25 -10z"/>
<path d="M8443 3209 c-26 -8 -56 -29 -40 -29 10 0 77 31 77 35 0 3 -1 5 -2 4
-2 0 -17 -5 -35 -10z"/>
<path d="M8360 3153 c-8 -3 -22 -11 -30 -18 -16 -14 -70 -9 -70 6 0 5 -4 9
-10 9 -20 0 -9 -29 12 -32 14 -2 22 -11 23 -25 1 -13 4 -26 8 -29 8 -8 34 18
30 31 -5 18 13 36 30 29 9 -3 17 -17 19 -32 2 -14 9 -27 16 -30 11 -3 12 0 3
16 -16 31 -13 42 12 42 21 1 21 1 3 12 -15 8 -21 8 -24 0 -2 -7 -8 -9 -13 -6
-6 3 -5 11 2 20 12 15 12 15 -11 7z"/>
<path d="M8270 3146 c0 -2 9 -6 20 -9 11 -3 18 -1 14 4 -5 9 -34 13 -34 5z"/>
<path d="M8580 3020 c30 -11 59 -20 65 -19 18 1 -79 38 -100 38 -11 0 5 -9 35
-19z"/>
<path d="M8470 2986 c0 -2 14 -14 30 -26 17 -12 30 -19 30 -16 0 2 -13 14 -30
26 -16 12 -30 19 -30 16z"/>
<path d="M7795 2926 l-39 -13 28 -24 c25 -22 86 -36 86 -20 0 4 -17 13 -37 21
l-38 14 29 5 c16 4 31 12 34 19 4 14 -10 14 -63 -2z"/>
<path d="M8200 2925 c7 -9 15 -13 17 -11 7 7 -7 26 -19 26 -6 0 -6 -6 2 -15z"/>
<path d="M8545 2930 c7 -11 65 -43 65 -36 0 2 -16 13 -36 25 -19 12 -32 16
-29 11z"/>
<path d="M8148 2823 c-10 -12 -7 -13 16 -7 19 5 31 2 37 -7 7 -11 9 -11 9 2 0
22 -46 31 -62 12z"/>
<path d="M8266 2777 c3 -10 9 -15 12 -12 3 3 0 11 -7 18 -10 9 -11 8 -5 -6z"/>
<path d="M8211 2764 c0 -11 3 -14 6 -6 3 7 2 16 -1 19 -3 4 -6 -2 -5 -13z"/>
<path d="M7946 2754 c-4 -9 -4 -19 -1 -22 2 -3 7 3 11 12 4 9 4 19 1 22 -2 3
-7 -3 -11 -12z"/>
<path d="M7859 2713 c-13 -16 -12 -17 4 -4 16 13 21 21 13 21 -2 0 -10 -8 -17
-17z"/>
<path d="M7824 2668 l-19 -23 23 19 c12 11 22 21 22 23 0 8 -8 2 -26 -19z"/>
<path d="M7890 2650 c-11 -22 -18 -40 -15 -40 2 0 14 18 25 40 11 22 18 40 15
40 -2 0 -14 -18 -25 -40z"/>
<path d="M8231 2644 c0 -11 3 -14 6 -6 3 7 2 16 -1 19 -3 4 -6 -2 -5 -13z"/>
<path d="M7784 2618 l-19 -23 23 19 c12 11 22 21 22 23 0 8 -8 2 -26 -19z"/>
<path d="M8241 2584 c0 -11 3 -14 6 -6 3 7 2 16 -1 19 -3 4 -6 -2 -5 -13z"/>
<path d="M7993 2535 c0 -22 2 -30 4 -17 2 12 2 30 0 40 -3 9 -5 -1 -4 -23z"/>
<path d="M7951 2544 c0 -11 3 -14 6 -6 3 7 2 16 -1 19 -3 4 -6 -2 -5 -13z"/>
<path d="M8370 2543 c0 -4 5 -15 10 -23 8 -13 10 -13 10 2 0 9 -4 20 -10 23
-5 3 -10 3 -10 -2z"/>
<path d="M7807 2484 c-37 -74 -33 -83 4 -10 17 32 29 60 27 62 -2 2 -16 -21
-31 -52z"/>
<path d="M8001 2444 c0 -11 3 -14 6 -6 3 7 2 16 -1 19 -3 4 -6 -2 -5 -13z"/>
<path d="M7931 2434 c0 -11 3 -14 6 -6 3 7 2 16 -1 19 -3 4 -6 -2 -5 -13z"/>
<path d="M7629 2423 c-13 -16 -12 -17 4 -4 16 13 21 21 13 21 -2 0 -10 -8 -17
-17z"/>
<path d="M7559 2333 l-24 -28 28 24 c15 14 27 26 27 28 0 8 -8 1 -31 -24z"/>
<path d="M7912 2320 c0 -14 2 -19 5 -12 2 6 2 18 0 25 -3 6 -5 1 -5 -13z"/>
<path d="M7504 2263 c-15 -20 -23 -33 -16 -29 13 8 56 66 49 66 -3 0 -17 -17
-33 -37z"/>
<path d="M7454 2198 l-19 -23 23 19 c12 11 22 21 22 23 0 8 -8 2 -26 -19z"/>
<path d="M7891 2204 c0 -11 3 -14 6 -6 3 7 2 16 -1 19 -3 4 -6 -2 -5 -13z"/>
<path d="M7662 2175 c-17 -37 -14 -45 4 -12 9 16 14 31 11 33 -2 2 -9 -7 -15
-21z"/>
<path d="M7881 2154 c0 -11 3 -14 6 -6 3 7 2 16 -1 19 -3 4 -6 -2 -5 -13z"/>
<path d="M7872 2100 c0 -14 2 -19 5 -12 2 6 2 18 0 25 -3 6 -5 1 -5 -13z"/>
<path d="M3140 4216 c0 -9 7 -19 15 -23 25 -9 27 2 5 22 -18 17 -20 17 -20 1z"/>
<path d="M3226 4153 c4 -16 14 -41 23 -58 8 -16 22 -50 31 -73 8 -24 19 -44
24 -43 5 0 18 24 29 53 21 58 34 132 19 110 -7 -11 -12 -10 -26 3 -9 9 -16 14
-16 11 0 -3 -16 2 -35 10 -49 20 -56 18 -49 -13z"/>
<path d="M3387 4143 c-4 -3 -7 -18 -7 -32 0 -21 2 -23 11 -11 8 11 9 8 4 -15
-5 -30 28 -114 78 -194 l21 -35 13 70 c29 156 32 138 -25 162 -28 12 -55 22
-61 22 -6 0 -11 9 -11 20 0 20 -11 26 -23 13z"/>
<path d="M3391 3984 c0 -11 3 -14 6 -6 3 7 2 16 -1 19 -3 4 -6 -2 -5 -13z"/>
<path d="M3403 3900 c0 -25 2 -35 4 -22 2 12 2 32 0 45 -2 12 -4 2 -4 -23z"/>
<path d="M3282 3860 c0 -19 2 -27 5 -17 2 9 2 25 0 35 -3 9 -5 1 -5 -18z"/>
<path d="M3412 3800 c0 -14 2 -19 5 -12 2 6 2 18 0 25 -3 6 -5 1 -5 -13z"/>
<path d="M2725 3890 c-16 -7 -17 -9 -3 -9 9 -1 20 4 23 9 7 11 7 11 -20 0z"/>
<path d="M2775 3763 c6 -5 37 -31 70 -57 l60 -48 -50 47 c-27 25 -59 51 -70
57 -11 6 -15 6 -10 1z"/>
<path d="M2734 3711 c17 -17 25 -31 19 -31 -6 0 10 -22 36 -48 25 -26 47 -54
49 -62 2 -8 8 -19 14 -25 6 -5 5 1 -2 14 -11 22 -11 23 6 17 11 -4 4 7 -16 26
-20 18 -50 54 -69 80 -18 26 -41 50 -50 53 -9 3 -3 -8 13 -24z"/>
<path d="M2894 3465 c8 -16 22 -39 31 -50 15 -19 15 -18 1 10 -8 17 -22 39
-31 50 -15 19 -15 18 -1 -10z"/>
<path d="M3746 3698 l-18 -33 21 25 c18 22 26 40 18 40 -1 0 -11 -15 -21 -32z"/>
<path d="M7030 3576 c0 -3 14 -12 30 -21 17 -9 30 -13 30 -11 0 3 -13 12 -30
21 -16 9 -30 13 -30 11z"/>
<path d="M7120 3526 c0 -3 9 -10 20 -16 11 -6 20 -8 20 -6 0 3 -9 10 -20 16
-11 6 -20 8 -20 6z"/>
<path d="M7225 3463 c6 -6 28 -20 50 -32 22 -13 31 -15 20 -6 -22 18 -86 53
-70 38z"/>
<path d="M7320 3406 c0 -3 9 -10 20 -16 11 -6 20 -8 20 -6 0 3 -9 10 -20 16
-11 6 -20 8 -20 6z"/>
<path d="M6970 3360 c14 -4 34 -8 45 -8 16 0 15 2 -5 8 -14 4 -34 8 -45 8 -16
0 -15 -2 5 -8z"/>
<path d="M7048 3343 c7 -3 16 -2 19 1 4 3 -2 6 -13 5 -11 0 -14 -3 -6 -6z"/>
<path d="M7088 3333 c7 -3 16 -2 19 1 4 3 -2 6 -13 5 -11 0 -14 -3 -6 -6z"/>
<path d="M7138 3323 c7 -3 16 -2 19 1 4 3 -2 6 -13 5 -11 0 -14 -3 -6 -6z"/>
<path d="M7178 3313 c7 -3 16 -2 19 1 4 3 -2 6 -13 5 -11 0 -14 -3 -6 -6z"/>
<path d="M7218 3303 c7 -3 16 -2 19 1 4 3 -2 6 -13 5 -11 0 -14 -3 -6 -6z"/>
<path d="M7268 3293 c7 -3 16 -2 19 1 4 3 -2 6 -13 5 -11 0 -14 -3 -6 -6z"/>
<path d="M7308 3283 c6 -2 18 -2 25 0 6 3 1 5 -13 5 -14 0 -19 -2 -12 -5z"/>
<path d="M7480 3240 c14 -4 34 -8 45 -8 16 0 15 2 -5 8 -14 4 -34 8 -45 8 -16
0 -15 -2 5 -8z"/>
<path d="M7318 3153 c23 -2 61 -2 85 0 23 2 4 4 -43 4 -47 0 -66 -2 -42 -4z"/>
<path d="M7128 3143 c23 -2 61 -2 85 0 23 2 4 4 -43 4 -47 0 -66 -2 -42 -4z"/>
<path d="M7503 2943 c15 -2 37 -2 50 0 12 2 0 4 -28 4 -27 0 -38 -2 -22 -4z"/>
<path d="M7348 2933 c12 -2 30 -2 40 0 9 3 -1 5 -23 4 -22 0 -30 -2 -17 -4z"/>
<path d="M7203 2923 c15 -2 39 -2 55 0 15 2 2 4 -28 4 -30 0 -43 -2 -27 -4z"/>
<path d="M7083 2913 c9 -2 23 -2 30 0 6 3 -1 5 -18 5 -16 0 -22 -2 -12 -5z"/>
<path d="M6968 2903 c6 -2 18 -2 25 0 6 3 1 5 -13 5 -14 0 -19 -2 -12 -5z"/>
<path d="M7628 2884 c-4 -3 -32 -16 -65 -30 -42 -17 -50 -23 -28 -21 34 4 139
56 114 57 -9 0 -18 -3 -21 -6z"/>
<path d="M7395 2800 c-27 -10 -43 -18 -35 -18 8 0 38 8 65 18 28 10 43 18 35
18 -8 0 -37 -8 -65 -18z"/>
<path d="M7519 2803 c-13 -16 -12 -17 4 -4 16 13 21 21 13 21 -2 0 -10 -8 -17
-17z"/>
<path d="M7235 2750 c-13 -5 -14 -9 -5 -9 8 0 24 4 35 9 13 5 14 9 5 9 -8 0
-24 -4 -35 -9z"/>
<path d="M7425 2732 c-34 -30 -25 -27 19 6 16 12 25 22 20 22 -5 0 -23 -13
-39 -28z"/>
<path d="M7090 2705 c-19 -7 -28 -13 -20 -13 8 0 31 6 50 13 19 7 28 13 20 13
-8 0 -31 -6 -50 -13z"/>
<path d="M7235 2594 l-30 -26 33 22 c17 12 32 23 32 26 0 7 -4 5 -35 -22z"/>
<path d="M7117 2516 c-74 -51 -110 -79 -77 -61 34 19 160 106 160 110 0 8 -2
7 -83 -49z"/>
<path d="M4252 3496 c-49 -35 -52 -43 -7 -16 47 27 63 40 50 40 -6 -1 -25 -11
-43 -24z"/>
<path d="M4061 3380 c-135 -80 -175 -107 -111 -75 47 24 250 147 250 151 0 7
-1 6 -139 -76z"/>
<path d="M4348 3323 c7 -3 16 -2 19 1 4 3 -2 6 -13 5 -11 0 -14 -3 -6 -6z"/>
<path d="M2873 3213 c9 -2 23 -2 30 0 6 3 -1 5 -18 5 -16 0 -22 -2 -12 -5z"/>
<path d="M2986 3054 c-4 -9 -4 -19 -1 -22 2 -3 7 3 11 12 4 9 4 19 1 22 -2 3
-7 -3 -11 -12z"/>
<path d="M3021 2964 c-13 -19 -22 -37 -19 -40 3 -3 15 12 27 32 12 20 20 38
19 40 -2 1 -14 -13 -27 -32z"/>
<path d="M3111 2674 c0 -11 3 -14 6 -6 3 7 2 16 -1 19 -3 4 -6 -2 -5 -13z"/>
<path d="M8095 3350 c28 -12 37 -12 30 0 -3 6 -16 10 -28 9 -21 0 -21 -1 -2
-9z"/>
<path d="M3685 3035 c11 -9 29 -21 40 -26 l20 -10 -20 16 c-11 9 -29 21 -40
26 l-20 10 20 -16z"/>
<path d="M4423 2943 c9 -2 23 -2 30 0 6 3 -1 5 -18 5 -16 0 -22 -2 -12 -5z"/>
<path d="M4040 2850 c8 -5 20 -10 25 -10 6 0 3 5 -5 10 -8 5 -19 10 -25 10 -5
0 -3 -5 5 -10z"/>
<path d="M4350 2720 c8 -5 20 -10 25 -10 6 0 3 5 -5 10 -8 5 -19 10 -25 10 -5
0 -3 -5 5 -10z"/>
<path d="M4400 2700 c8 -5 20 -10 25 -10 6 0 3 5 -5 10 -8 5 -19 10 -25 10 -5
0 -3 -5 5 -10z"/>
<path d="M3726 2497 c3 -10 9 -15 12 -12 3 3 0 11 -7 18 -10 9 -11 8 -5 -6z"/>
<path d="M3751 2445 c0 -5 6 -21 14 -35 8 -14 14 -20 14 -15 0 6 -6 21 -14 35
-8 14 -14 21 -14 15z"/>
<path d="M3591 2404 c0 -11 3 -14 6 -6 3 7 2 16 -1 19 -3 4 -6 -2 -5 -13z"/>
<path d="M3601 2364 c0 -11 3 -14 6 -6 3 7 2 16 -1 19 -3 4 -6 -2 -5 -13z"/>
<path d="M8035 7328 c8 -27 35 -103 102 -285 l48 -132 90 -93 c152 -158 267
-292 355 -415 20 -28 35 -41 45 -37 8 4 15 1 15 -6 0 -6 -4 -8 -10 -5 -15 9
-12 -8 6 -34 11 -15 20 -19 27 -12 7 7 15 3 28 -12 16 -20 18 -20 24 -4 4 9
14 17 23 17 13 0 12 -3 -3 -20 -16 -18 -16 -20 -2 -20 10 0 17 5 17 10 0 6 11
10 25 10 20 0 25 -5 25 -25 0 -15 6 -25 14 -25 13 0 25 66 26 153 1 15 5 25
10 22 6 -3 7 1 4 9 -3 9 -10 16 -16 16 -5 0 -6 -4 -3 -10 3 -5 1 -10 -5 -10
-6 0 -9 8 -6 18 7 23 -19 56 -38 49 -9 -4 -18 -2 -21 4 -4 5 -1 8 6 7 6 -2 14
3 17 11 3 9 0 11 -8 6 -10 -6 -12 -3 -6 10 5 14 4 16 -7 6 -12 -9 -13 -7 -9
14 4 21 1 24 -13 18 -13 -4 -16 -3 -11 5 5 8 2 10 -8 6 -9 -3 -16 -2 -16 4 0
6 4 12 9 14 5 2 3 12 -5 23 -13 17 -16 18 -25 5 -7 -11 -8 -9 -4 10 6 27 -8
46 -176 236 -75 85 -212 222 -304 305 -59 52 -216 179 -221 179 -3 0 -2 -10 1
-22z m825 -880 c0 -5 -4 -8 -10 -8 -5 0 -10 10 -10 23 0 18 2 19 10 7 5 -8 10
-18 10 -22z m-43 -10 c-3 -8 -6 -5 -6 6 -1 11 2 17 5 13 3 -3 4 -12 1 -19z
m20 -34 c-3 -3 -12 -4 -19 -1 -8 3 -5 6 6 6 11 1 17 -2 13 -5z"/>
<path d="M5242 7030 c0 -14 2 -19 5 -12 2 6 2 18 0 25 -3 6 -5 1 -5 -13z"/>
<path d="M5220 7011 c0 -22 -2 -23 -17 -9 -31 25 -47 16 -64 -37 -23 -68 -31
-179 -19 -244 7 -39 7 -58 -1 -68 -9 -10 -9 -12 2 -8 22 9 85 106 103 158 23
67 28 161 11 200 -13 29 -14 30 -15 8z"/>
<path d="M5574 7022 c-6 -4 -15 -17 -19 -30 -6 -22 -7 -22 -21 -5 -13 16 -14
17 -8 0 5 -14 2 -16 -12 -10 -18 6 -18 6 -2 -10 22 -22 21 -23 53 19 26 35 30
50 9 36z"/>
<path d="M4651 6963 c-17 -19 -28 -39 -25 -45 4 -7 2 -8 -4 -4 -19 12 -52 -68
-51 -121 1 -27 -1 -56 -6 -66 -14 -34 1 -159 25 -204 13 -23 27 -40 31 -38 4
3 10 -1 13 -7 8 -21 33 17 41 65 9 50 7 90 -6 98 -5 3 -7 12 -4 20 3 9 -13 34
-40 63 -45 49 -49 66 -16 66 43 0 184 177 151 188 -6 2 -8 8 -4 13 3 5 0 9 -6
9 -6 0 -8 -11 -5 -27 5 -24 4 -25 -4 -7 -16 37 -55 35 -90 -3z m32 12 c-3 -9
-8 -14 -10 -11 -3 3 -2 9 2 15 9 16 15 13 8 -4z"/>
<path d="M4841 6954 c0 -11 3 -14 6 -6 3 7 2 16 -1 19 -3 4 -6 -2 -5 -13z"/>
<path d="M5455 6960 c3 -5 -1 -11 -9 -11 -41 -3 -57 -15 -50 -37 4 -12 3 -13
-3 -4 -7 10 -13 9 -25 -5 -28 -32 -48 -81 -48 -116 0 -33 -3 -36 -76 -72 -41
-20 -73 -39 -71 -41 2 -3 41 13 85 36 45 22 85 40 89 40 15 0 147 127 166 159
16 27 16 31 3 31 -9 0 -16 5 -16 12 0 6 -7 3 -15 -8 -14 -19 -14 -18 -15 4 0
12 -5 22 -11 22 -5 0 -7 -4 -4 -10z"/>
<path d="M5582 6963 c1 -4 -3 -18 -10 -31 -7 -12 -12 -44 -10 -70 l3 -47 130
-1 c71 -1 120 1 107 3 -22 4 -23 6 -7 29 l15 24 -44 0 c-49 0 -66 13 -39 29
11 6 13 11 5 11 -7 0 -10 5 -7 10 12 20 -11 9 -50 -22 -22 -18 -44 -38 -48
-45 -12 -19 -24 -16 -30 8 -4 14 -10 18 -19 13 -8 -4 -10 -3 -5 2 5 5 18 9 30
9 13 0 23 7 25 19 5 26 -20 40 -35 19 -15 -20 -17 -9 -3 17 7 13 7 21 0 25 -6
4 -9 3 -8 -2z m38 -53 c0 -5 -2 -10 -4 -10 -3 0 -8 5 -11 10 -3 6 -1 10 4 10
6 0 11 -4 11 -10z"/>
<path d="M4879 6911 c8 -5 10 -14 6 -22 -6 -11 -5 -11 5 -2 14 12 6 33 -13 33
-8 0 -7 -3 2 -9z"/>
<path d="M4835 6880 c-4 -11 -5 -35 -4 -53 2 -18 0 -38 -5 -45 -7 -12 -4 -51
10 -125 4 -17 10 -25 17 -20 9 5 9 3 0 -8 -16 -20 34 -117 84 -163 71 -63 107
-91 99 -76 -4 9 -2 8 7 -2 13 -17 58 -38 78 -38 13 0 -11 24 -31 33 -11 5 -9
6 5 6 39 -2 44 1 38 19 -6 15 -5 15 10 3 24 -19 21 1 -5 34 l-21 28 21 -12
c11 -6 27 -19 34 -29 7 -10 22 -22 33 -26 28 -9 -39 49 -90 79 -52 31 -99 39
-155 26 -24 -5 -46 -8 -48 -6 -2 2 3 18 11 37 24 54 37 99 37 131 0 39 -11 28
-15 -15 -2 -18 -8 -44 -14 -58 -11 -24 -11 -24 -8 8 2 17 0 32 -5 32 -4 0 -8
-12 -8 -26 0 -14 -4 -23 -10 -19 -14 9 -12 35 5 69 9 16 13 31 10 34 -3 3 -5
0 -5 -7 0 -7 -4 -9 -10 -6 -5 3 -10 15 -10 26 0 10 -5 19 -11 19 -7 0 -10 15
-7 39 2 30 0 37 -8 30 -8 -7 -14 -7 -18 0 -4 5 -2 12 3 16 7 4 7 15 1 30 -5
14 -7 32 -4 40 4 8 4 15 1 15 -3 0 -9 -9 -12 -20z m38 -214 c4 -10 1 -13 -8
-9 -8 3 -12 9 -9 14 7 12 11 11 17 -5z"/>
<path d="M4862 6875 c0 -16 2 -22 5 -12 2 9 2 23 0 30 -3 6 -5 -1 -5 -18z"/>
<path d="M5452 6780 c-35 -8 -54 -20 -33 -20 7 0 33 -17 59 -39 62 -51 98 -68
162 -77 48 -6 53 -5 47 10 -4 10 -7 20 -7 22 0 3 -4 3 -9 -1 -5 -3 -12 -1 -16
5 -3 6 1 13 10 16 13 5 11 11 -12 30 -30 26 -74 38 -139 39 -34 0 -38 2 -25
12 18 14 11 14 -37 3z"/>
<path d="M4891 6764 c0 -11 3 -14 6 -6 3 7 2 16 -1 19 -3 4 -6 -2 -5 -13z"/>
<path d="M4371 6644 c2 -43 9 -65 20 -59 5 3 6 -1 3 -9 -7 -17 47 -128 77
-161 10 -11 30 -22 45 -23 25 -2 26 0 20 36 -4 20 -9 56 -12 80 -4 24 -11 42
-19 42 -7 0 -15 12 -18 28 -3 15 -13 36 -21 47 -16 20 -16 20 -31 1 -12 -16
-17 -17 -30 -6 -12 10 -15 9 -16 -6 0 -11 -3 -14 -6 -6 -3 7 0 19 6 26 8 10 7
17 -4 26 -13 11 -15 8 -14 -16z m49 -99 c7 -9 8 -15 2 -15 -5 0 -12 7 -16 15
-3 8 -4 15 -2 15 2 0 9 -7 16 -15z"/>
<path d="M5181 6633 c47 -53 75 -75 141 -109 75 -38 86 -41 68 -19 -10 12 -10
15 4 15 9 0 16 -4 16 -10 0 -5 5 -10 11 -10 6 0 9 7 6 15 -4 8 -2 17 3 20 4 3
11 -1 13 -7 3 -7 6 -3 6 10 1 15 5 21 14 17 6 -4 -4 8 -23 25 -61 54 -126 78
-209 79 l-75 1 25 -27z"/>
<path d="M5025 6589 c-59 -45 -67 -57 -12 -18 42 29 65 50 55 49 -2 0 -21 -14
-43 -31z"/>
<path d="M4500 6575 c0 -8 4 -15 10 -15 5 0 7 7 4 15 -4 8 -8 15 -10 15 -2 0
-4 -7 -4 -15z"/>
<path d="M4270 6529 c0 -16 -3 -20 -8 -12 -5 8 -8 -9 -8 -37 0 -28 1 -50 2
-50 6 0 25 112 20 117 -3 4 -6 -5 -6 -18z"/>
<path d="M3984 6489 c4 -24 9 -59 13 -78 l6 -35 -28 22 c-44 35 -48 26 -11
-25 37 -51 158 -162 178 -163 24 -1 37 135 17 187 -19 50 -90 108 -158 128
-23 7 -24 6 -17 -36z"/>
<path d="M8902 6360 c-17 -28 -15 -32 8 -13 20 18 26 33 12 33 -4 0 -13 -9
-20 -20z"/>
<path d="M4765 6334 c-16 -19 -32 -38 -35 -41 -3 -4 8 3 24 16 32 24 62 61 49
61 -4 0 -21 -16 -38 -36z"/>
<path d="M5168 6363 c7 -3 16 -2 19 1 4 3 -2 6 -13 5 -11 0 -14 -3 -6 -6z"/>
<path d="M4375 6341 c-20 -4 -26 -9 -18 -14 7 -4 31 -39 54 -77 35 -59 46 -70
68 -70 46 0 66 10 84 41 9 17 21 27 27 24 5 -3 10 -4 10 -1 0 3 -32 24 -70 47
-39 23 -73 45 -76 50 -6 10 -34 10 -79 0z"/>
<path d="M5148 6343 c7 -3 16 -2 19 1 4 3 -2 6 -13 5 -11 0 -14 -3 -6 -6z"/>
<path d="M4615 6324 c29 -23 55 -36 55 -28 0 12 -43 44 -59 44 -13 -1 -12 -4
4 -16z"/>
<path d="M4780 6290 c-8 -5 -10 -10 -5 -10 6 0 17 5 25 10 8 5 11 10 5 10 -5
0 -17 -5 -25 -10z"/>
<path d="M2428 6283 c7 -3 16 -2 19 1 4 3 -2 6 -13 5 -11 0 -14 -3 -6 -6z"/>
<path d="M8721 6285 c-1 -5 8 -21 18 -34 14 -18 20 -21 26 -11 5 9 4 11 -3 6
-7 -4 -12 -3 -12 1 0 5 -7 18 -15 29 -8 10 -14 15 -14 9z"/>
<path d="M8890 6265 c0 -14 5 -25 10 -25 6 0 10 11 10 25 0 14 -4 25 -10 25
-5 0 -10 -11 -10 -25z"/>
<path d="M8785 6239 c-4 -6 -5 -12 -2 -15 2 -3 7 2 10 11 7 17 1 20 -8 4z"/>
<path d="M8777 6189 c7 -7 15 -10 18 -7 3 3 -2 9 -12 12 -14 6 -15 5 -6 -5z"/>
<path d="M3520 6174 c0 -8 5 -12 10 -9 6 4 8 11 5 16 -9 14 -15 11 -15 -7z"/>
<path d="M4471 6144 c0 -11 3 -14 6 -6 3 7 2 16 -1 19 -3 4 -6 -2 -5 -13z"/>
<path d="M2480 6018 c0 -7 7 -22 15 -32 12 -16 15 -17 15 -4 0 24 -11 48 -21
48 -5 0 -9 -6 -9 -12z"/>
<path d="M4445 5870 c-13 -15 -45 -131 -45 -163 0 -9 3 -16 8 -15 14 3 42 -14
36 -23 -3 -5 2 -9 10 -9 10 0 19 16 26 43 6 23 13 47 15 54 2 6 18 13 36 15
31 3 32 5 31 46 0 23 -1 46 -1 51 -2 17 -101 17 -116 1z"/>
<path d="M8858 5762 c-34 -4 -36 -18 -5 -28 12 -4 25 -12 29 -18 5 -7 8 -6 8
4 0 14 17 -9 36 -50 4 -8 16 -26 26 -39 10 -13 15 -28 11 -34 -4 -6 -1 -7 7
-2 9 6 11 -1 6 -26 -4 -25 -4 -29 3 -14 9 19 10 19 10 1 1 -11 4 -16 7 -13 7
7 -35 128 -46 137 -4 3 -13 22 -20 42 -14 38 -27 46 -72 40z"/>
<path d="M5056 5665 c-21 -7 -51 -25 -66 -40 -47 -45 -107 -205 -78 -205 27 0
124 118 155 188 18 40 31 72 30 72 -1 -1 -19 -7 -41 -15z"/>
<path d="M9030 5672 c0 -13 34 -96 56 -137 27 -50 101 -112 127 -107 4 1 7 -5
7 -13 0 -8 9 -15 20 -15 13 0 20 -7 20 -20 0 -18 4 -16 28 12 15 18 36 46 46
62 18 28 18 29 0 21 -11 -4 -27 -10 -36 -12 -10 -3 -18 -14 -18 -24 0 -11 -4
-19 -10 -19 -5 0 -10 5 -10 11 0 5 -36 45 -81 87 -45 42 -96 97 -115 121 -19
24 -34 39 -34 33z"/>
<path d="M8611 5614 c0 -11 3 -14 6 -6 3 7 2 16 -1 19 -3 4 -6 -2 -5 -13z"/>
<path d="M5340 5590 c0 -6 -5 -8 -10 -5 -18 11 -144 -32 -188 -65 -23 -16 -54
-49 -68 -72 -15 -24 -32 -46 -38 -50 -6 -4 16 -8 48 -8 33 0 56 3 53 6 -4 4
11 16 33 28 97 52 206 155 180 171 -5 3 -10 1 -10 -5z"/>
<path d="M4058 5553 c4 -23 2 -25 -19 -20 -22 5 -22 5 -6 -7 16 -13 16 -14 -4
-19 -13 -4 -18 -10 -14 -17 6 -9 9 -9 15 0 5 7 8 2 8 -14 0 -25 -2 -26 -19
-10 -17 15 -18 15 -16 -4 1 -13 6 -18 16 -14 10 4 12 1 6 -9 -10 -15 9 -3 50
34 11 10 30 20 43 24 22 5 22 6 5 25 -10 11 -30 29 -44 39 l-26 18 5 -26z"/>
<path d="M4036 5557 c3 -10 9 -15 12 -12 3 3 0 11 -7 18 -10 9 -11 8 -5 -6z"/>
<path d="M4666 5467 c-3 -55 -5 -102 -3 -104 2 -2 20 19 39 47 l36 51 -16 49
c-9 28 -22 50 -32 53 -15 4 -18 -8 -24 -96z"/>
<path d="M8995 5510 c17 -19 21 -45 5 -35 -5 3 -10 1 -10 -4 0 -6 4 -11 10
-11 5 0 9 -10 7 -22 -1 -14 4 -23 16 -26 12 -2 17 3 17 17 0 34 -30 98 -45 98
-13 0 -13 -3 0 -17z"/>
<path d="M8666 5512 c5 -4 12 -11 15 -15 3 -5 9 -2 12 5 3 9 -3 14 -15 15 -11
1 -16 -1 -12 -5z"/>
<path d="M3915 5490 c-3 -6 1 -7 9 -4 18 7 21 14 7 14 -6 0 -13 -4 -16 -10z"/>
<path d="M8660 5481 c0 -6 4 -13 10 -16 6 -3 7 1 4 9 -7 18 -14 21 -14 7z"/>
<path d="M1740 5440 c52 -101 124 -144 204 -120 37 11 41 10 59 -12 l19 -23
-17 30 c-30 52 -65 95 -91 112 -34 22 -131 53 -166 53 l-28 0 20 -40z"/>
<path d="M5420 5443 c-13 -3 -33 -11 -44 -19 -17 -12 -18 -14 -4 -14 9 0 23
-7 31 -15 9 -8 41 -17 74 -19 42 -4 50 -3 28 3 l-30 9 32 1 c32 1 59 21 29 21
-9 0 -16 5 -16 10 0 6 -12 10 -27 11 l-28 1 25 8 c22 7 21 8 -10 8 -19 -1 -46
-3 -60 -5z"/>
<path d="M3977 5424 c6 -15 23 -19 23 -5 0 5 -7 11 -14 14 -10 4 -13 1 -9 -9z"/>
<path d="M8711 5424 c0 -11 3 -14 6 -6 3 7 2 16 -1 19 -3 4 -6 -2 -5 -13z"/>
<path d="M3440 5421 c0 -4 21 -28 48 -53 60 -56 159 -87 216 -68 51 16 72 2
81 -57 4 -26 9 -43 12 -37 2 6 0 30 -5 52 -9 40 -9 41 29 67 22 14 39 30 39
36 0 6 -7 3 -16 -5 -8 -9 -19 -14 -24 -11 -4 3 -10 -2 -14 -10 -11 -29 -62
-17 -113 26 -26 23 -62 48 -80 55 -35 15 -173 19 -173 5z"/>
<path d="M5563 5406 c0 -18 4 -22 18 -19 11 3 19 8 19 12 0 3 -8 11 -19 18
-16 10 -18 9 -18 -11z"/>
<path d="M4905 5390 c3 -5 8 -10 11 -10 2 0 4 5 4 10 0 6 -5 10 -11 10 -5 0
-7 -4 -4 -10z"/>
<path d="M5185 5390 c-23 -6 -15 -8 37 -9 37 0 70 4 73 9 7 12 -64 12 -110 0z"/>
<path d="M9040 5381 c0 -11 6 -22 13 -24 9 -4 8 -8 -3 -16 -13 -10 -8 -15 13
-12 14 2 11 -107 -5 -126 -6 -8 -6 -18 1 -30 9 -16 10 -16 11 5 0 12 3 22 8
22 14 -1 46 -85 46 -122 0 -20 3 -35 6 -33 6 3 9 -18 11 -62 1 -13 5 -23 9
-23 8 0 26 -115 35 -230 3 -41 14 -115 25 -165 l18 -90 -5 85 c-7 122 -30 297
-58 430 -38 185 -48 220 -58 213 -6 -4 -7 -1 -2 7 5 8 -4 49 -21 101 -28 85
-44 111 -44 70z"/>
<path d="M4920 5351 c0 -45 91 -200 130 -221 49 -26 61 -3 38 73 -13 44 -86
125 -136 151 -31 16 -32 16 -32 -3z"/>
<path d="M5080 5354 c0 -14 42 -64 55 -64 20 0 52 -45 59 -82 10 -49 47 -87
85 -86 28 1 31 4 31 35 0 43 -13 67 -58 107 -19 17 -44 44 -54 61 l-18 30 0
-32 c0 -40 -9 -41 -41 -7 -25 27 -59 49 -59 38z"/>
<path d="M8750 5345 c0 -8 -7 -15 -16 -15 -13 0 -14 -3 -4 -15 7 -8 10 -22 6
-30 -12 -32 5 -13 19 21 18 43 19 54 5 54 -5 0 -10 -7 -10 -15z"/>
<path d="M4780 5316 c0 -53 65 -202 91 -209 63 -17 48 127 -21 195 -44 44 -70
49 -70 14z"/>
<path d="M5339 5280 c47 -59 53 -85 19 -75 -22 6 -22 5 -3 -6 22 -13 55 -45
55 -53 0 -3 -6 -3 -13 0 -8 3 -20 -2 -27 -11 -7 -9 -8 -15 -2 -15 6 0 13 6 16
13 5 9 7 9 12 -1 3 -6 9 -10 14 -7 5 3 29 -11 55 -31 79 -60 175 -84 175 -44
0 45 -42 130 -81 163 -53 46 -164 103 -218 112 l-43 7 41 -52z"/>
<path d="M8808 5313 c7 -3 16 -2 19 1 4 3 -2 6 -13 5 -11 0 -14 -3 -6 -6z"/>
<path d="M8751 5265 c0 -5 6 -19 14 -29 8 -11 15 -15 15 -10 0 6 -7 19 -15 30
-8 10 -14 15 -14 9z"/>
<path d="M9044 5249 c-3 -6 -1 -16 5 -22 8 -8 11 -5 11 11 0 24 -5 28 -16 11z"/>
<path d="M3599 5215 c-6 -22 -3 -33 12 -50 9 -11 29 -41 42 -68 32 -60 64
-104 71 -97 17 18 12 62 -12 103 -44 74 -107 137 -113 112z"/>
<path d="M1689 5113 c-2 -35 3 -207 7 -218 3 -7 23 -25 45 -39 28 -19 39 -34
40 -54 1 -15 6 7 11 48 11 93 4 152 -23 196 -21 34 -78 82 -80 67z"/>
<path d="M8840 5010 c13 -23 20 -26 20 -6 0 8 -7 16 -15 20 -13 4 -14 2 -5
-14z"/>
<path d="M8815 4995 c3 -16 6 -46 7 -65 0 -27 1 -29 5 -10 8 43 19 42 32 -1 7
-22 14 -39 17 -36 8 7 -20 79 -31 78 -5 0 -16 14 -23 32 l-12 32 5 -30z"/>
<path d="M8872 4970 c0 -14 2 -19 5 -12 2 6 2 18 0 25 -3 6 -5 1 -5 -13z"/>
<path d="M3668 4933 c6 -2 18 -2 25 0 6 3 1 5 -13 5 -14 0 -19 -2 -12 -5z"/>
<path d="M3720 4925 c7 -8 16 -12 21 -9 13 8 1 24 -18 24 -13 0 -13 -3 -3 -15z"/>
<path d="M1950 4895 c-11 -13 -10 -14 4 -9 9 3 16 10 16 15 0 13 -6 11 -20 -6z"/>
<path d="M8837 4883 c-9 -9 -9 -55 1 -70 4 -6 7 9 8 33 1 47 1 48 -9 37z"/>
<path d="M1887 4842 c-10 -10 -17 -22 -17 -26 0 -12 37 13 44 29 8 21 -7 19
-27 -3z"/>
<path d="M1779 4732 c-5 -42 -4 -43 13 -20 19 25 24 43 9 33 -5 -3 -11 3 -13
12 -3 10 -6 -1 -9 -25z"/>
<path d="M2786 4751 c-6 -10 28 -44 36 -35 3 3 4 14 1 25 -5 19 -28 26 -37 10z"/>
<path d="M1440 4650 c0 -5 -7 -10 -16 -10 -11 0 -14 -5 -9 -17 4 -10 11 -31
15 -48 12 -50 47 -111 80 -139 32 -27 47 -30 140 -31 l54 0 29 -55 c15 -30 25
-44 21 -30 -3 14 -13 37 -20 52 -8 15 -14 43 -14 63 0 19 -4 35 -8 35 -4 0
-14 16 -21 35 -16 46 -79 98 -157 129 -69 28 -94 32 -94 16z"/>
<path d="M8860 4540 c0 -19 3 -21 12 -12 9 9 9 15 0 24 -9 9 -12 7 -12 -12z"/>
<path d="M1553 4169 c-18 -5 -33 -13 -32 -17 1 -14 129 -117 166 -134 21 -10
53 -18 71 -18 35 0 92 24 92 39 0 22 -69 97 -109 118 -47 25 -126 30 -188 12z"/>
<path d="M1443 3613 c-13 -2 -23 -11 -23 -19 0 -8 -5 -14 -10 -14 -16 0 16
-56 46 -79 36 -28 58 -26 95 7 27 24 31 33 25 56 -10 41 -66 62 -133 49z"/>
<path d="M1379 3361 c-14 -4 -36 -14 -49 -21 -21 -11 -21 -13 -6 -22 9 -5 14
-13 11 -18 -3 -5 1 -23 10 -40 8 -16 12 -30 8 -30 -5 -1 3 -7 17 -15 43 -24
84 -18 134 20 49 38 76 44 76 20 0 -12 3 -13 13 -4 9 9 2 22 -34 61 -43 45
-51 49 -100 53 -30 3 -66 1 -80 -4z"/>
<path d="M1957 2416 c-3 -7 0 -19 6 -25 13 -13 18 -41 7 -41 -5 0 -11 8 -13
18 -4 13 -5 12 -6 -4 -1 -19 16 -34 36 -34 4 0 -1 77 -6 98 -2 8 -20 0 -24
-12z"/>
<path d="M2007 2423 c-4 -3 -7 -11 -7 -17 0 -6 5 -5 12 2 6 6 9 14 7 17 -3 3
-9 2 -12 -2z"/>
<path d="M1840 2264 l-35 -16 35 -16 c20 -9 67 -16 112 -17 46 -1 84 -7 93
-15 8 -7 19 -9 23 -5 4 4 1 10 -6 13 -8 2 -30 18 -49 35 -43 38 -118 47 -173
21z"/>
<path d="M1845 2151 c-17 -10 -39 -30 -48 -45 -18 -26 -18 -26 2 -14 14 8 23
9 33 1 14 -11 42 -10 73 3 11 5 5 -5 -15 -24 l-35 -31 49 -1 c27 0 64 -5 81
-11 38 -14 85 -5 85 16 0 9 -26 40 -57 70 -51 48 -63 55 -98 55 -22 0 -54 -8
-70 -19z"/>
<path d="M4619 2085 c-3 -2 -19 -5 -35 -7 -19 -1 -37 -12 -49 -27 -10 -13 -13
-21 -7 -17 6 4 19 -3 29 -14 28 -34 88 -60 137 -60 41 0 115 26 116 41 0 11
-68 59 -105 75 -34 14 -77 19 -86 9z"/>
<path d="M2421 1787 c-24 -12 -30 -29 -14 -34 14 -5 46 23 42 35 -3 8 -10 8
-28 -1z"/>
<path d="M2253 1775 c-3 -9 -3 -19 1 -22 8 -9 37 18 30 28 -8 14 -24 11 -31
-6z"/>
<path d="M2218 1683 c-19 -5 -48 -71 -48 -109 0 -24 2 -23 40 17 27 29 40 51
40 71 0 15 -3 27 -7 27 -5 -1 -15 -3 -25 -6z"/>
<path d="M2474 1445 c-21 -33 -2 -93 30 -92 12 0 29 -3 39 -7 20 -9 23 8 7 50
-8 21 -14 24 -22 16 -18 -18 -25 -15 -30 13 -5 26 9 45 21 28 10 -16 50 -22
61 -8 8 9 1 14 -27 19 -57 9 -61 8 -79 -19z"/>
<path d="M2803 1255 c-34 -15 -53 -38 -78 -99 l-16 -38 28 6 c15 4 51 16 79
27 50 20 52 22 61 70 10 49 10 49 -16 49 -14 -1 -40 -7 -58 -15z"/>
<path d="M6980 1179 c-52 -21 -130 -51 -173 -65 -43 -14 -77 -30 -75 -35 5
-15 161 -209 168 -209 3 0 51 15 106 34 144 48 305 116 435 183 l114 58 -242
3 c-134 1 -243 5 -243 8 0 3 7 18 15 34 20 39 14 38 -105 -11z"/>
<path d="M3491 1169 l-23 -9 24 -33 c19 -24 39 -36 81 -46 31 -8 60 -12 64 -7
12 12 -20 59 -56 83 -37 25 -53 27 -90 12z"/>
<path d="M2953 1133 c-27 -14 -33 -23 -41 -72 -11 -62 -3 -82 24 -60 20 17 64
106 64 132 0 20 -5 21 -47 0z"/>
<path d="M3709 1098 c-16 -16 -29 -33 -29 -37 0 -17 58 -36 98 -32 11 1 52 57
52 72 0 3 -20 10 -46 16 -43 10 -46 9 -75 -19z"/>
<path d="M6289 1095 c-3 -2 -61 -12 -129 -20 -69 -9 -139 -23 -155 -31 -17 -8
-64 -47 -106 -87 -41 -39 -110 -103 -154 -142 -44 -38 -88 -78 -99 -87 -19
-17 -12 -18 155 -18 96 0 204 3 240 6 61 6 67 9 90 42 13 20 29 40 34 46 6 6
22 27 35 46 13 19 35 46 47 60 31 33 17 42 -48 31 -29 -5 -94 -15 -142 -21
-57 -8 -90 -17 -94 -26 -6 -15 -53 -20 -53 -6 0 12 52 83 77 105 15 13 50 20
153 27 176 14 215 22 224 47 4 9 1 20 -6 25 -14 8 -62 11 -69 3z"/>
<path d="M4108 1045 c-24 -32 -22 -105 2 -105 13 0 30 59 19 66 -6 3 -7 19 -4
35 8 35 5 36 -17 4z"/>
<path d="M3291 1034 c-6 -14 -14 -41 -17 -60 -4 -26 -2 -34 10 -34 22 0 36 32
36 79 0 47 -11 53 -29 15z"/>
<path d="M3363 1048 c24 -56 33 -68 52 -66 27 4 32 45 8 63 -23 18 -67 20 -60
3z"/>
<path d="M5115 994 c-103 -46 -296 -110 -359 -119 -33 -5 -44 -10 -34 -16 43
-24 441 -102 660 -129 l96 -12 93 78 c51 44 106 92 123 107 l31 28 -50 -6
c-82 -9 -129 -6 -141 10 -16 21 -46 19 -116 -10 -78 -32 -88 -31 -123 5 -16
17 -25 30 -21 30 5 0 -4 10 -20 22 -16 13 -35 28 -42 35 -16 16 -2 19 -97 -23z"/>
<path d="M4222 989 c-13 -20 -12 -21 20 -14 42 9 50 14 43 26 -11 17 -50 9
-63 -12z"/>
<path d="M3663 962 c4 -6 -2 -26 -14 -46 -11 -19 -17 -41 -13 -47 10 -16 34
17 34 48 0 27 15 29 67 8 21 -8 69 -22 108 -30 38 -8 75 -21 81 -30 6 -8 19
-15 29 -15 10 0 34 -5 52 -12 26 -10 36 -9 45 1 11 10 8 12 -12 9 -49 -6 -26
24 30 41 l55 17 -145 0 c-149 0 -163 3 -304 60 -13 5 -17 4 -13 -4z"/>
<path d="M3955 948 c-14 -21 -14 -23 2 -30 30 -11 33 -9 33 22 0 36 -13 38
-35 8z"/>
<path d="M4163 951 c-18 -9 -33 -19 -33 -22 0 -6 102 -19 108 -14 5 5 -22 44
-33 48 -5 2 -25 -3 -42 -12z"/>
<path d="M4140 890 c0 -12 42 -31 50 -23 6 5 -30 33 -42 33 -4 0 -8 -5 -8 -10z"/>
<path d="M3714 856 c-19 -19 -34 -43 -34 -55 0 -20 1 -20 35 -4 30 14 55 52
55 84 0 18 -23 8 -56 -25z"/>
<path d="M3846 850 c3 -19 15 -44 26 -55 19 -20 19 -20 12 10 -3 17 -12 35
-19 40 -6 6 -15 17 -18 25 -4 8 -4 -1 -1 -20z"/>
<path d="M4110 866 c0 -8 5 -18 10 -21 6 -3 10 3 10 14 0 12 -4 21 -10 21 -5
0 -10 -6 -10 -14z"/>
</g>
</svg>
